%
M48
M72
T01C0.01181
%
T01
X11827Y11661
X12417Y15402
X20291Y19339
X28362Y15402
X36039Y19339
X43913Y15402
X51787Y19339
X56315Y20126
X55921Y27016
X69504Y34299
X78165Y29378
X85449Y31150
X88795Y25244
X92142Y22685
X85252Y18354
X86039Y12055
X92535Y12055
X77181Y18157
X76394Y12055
X69701Y12055
X70882Y22488
X56512Y12843
X93126Y33315
X106512Y34299
X106512Y25638
X110646Y15402
X106315Y12843
X118913Y19339
X126787Y15402
X134268Y19339
X142339Y15402
X141748Y11465
X150213Y19339
X150016Y28394
X12417Y32134
M30
