G75*
%MOIN*%
%OFA0B0*%
%FSLAX25Y25*%
%IPPOS*%
%LPD*%
%AMOC8*
5,1,8,0,0,1.08239X$1,22.5*
%
%ADD10R,0.01781X0.04537*%
%ADD11R,0.02569X0.04537*%
%ADD12OC8,0.02569*%
D10*
X0076197Y0022488D03*
X0078165Y0022488D03*
X0080134Y0022488D03*
X0082102Y0022488D03*
X0084071Y0022488D03*
X0086039Y0022488D03*
D11*
X0089189Y0012055D03*
X0073047Y0012055D03*
D12*
X0011827Y0011661D03*
X0012417Y0015402D03*
X0020291Y0019339D03*
X0028362Y0015402D03*
X0036039Y0019339D03*
X0043913Y0015402D03*
X0051787Y0019339D03*
X0056315Y0020126D03*
X0055921Y0027016D03*
X0069504Y0034299D03*
X0078165Y0029378D03*
X0085449Y0031150D03*
X0088795Y0025244D03*
X0092142Y0022685D03*
X0085252Y0018354D03*
X0086039Y0012055D03*
X0092535Y0012055D03*
X0077181Y0018157D03*
X0076394Y0012055D03*
X0069701Y0012055D03*
X0070882Y0022488D03*
X0056512Y0012843D03*
X0093126Y0033315D03*
X0106512Y0034299D03*
X0106512Y0025638D03*
X0110646Y0015402D03*
X0106315Y0012843D03*
X0118913Y0019339D03*
X0126787Y0015402D03*
X0134268Y0019339D03*
X0142339Y0015402D03*
X0141748Y0011465D03*
X0150213Y0019339D03*
X0150016Y0028394D03*
X0012417Y0032134D03*
M02*
