G75*
%MOIN*%
%OFA0B0*%
%FSLAX25Y25*%
%IPPOS*%
%LPD*%
%AMOC8*
5,1,8,0,0,1.08239X$1,22.5*
%
%ADD10R,0.00060X0.00060*%
%ADD11R,0.00600X0.00060*%
%ADD12R,0.00720X0.00060*%
%ADD13R,0.00420X0.00060*%
%ADD14R,0.00780X0.00060*%
%ADD15R,0.00240X0.00060*%
%ADD16R,0.01020X0.00060*%
%ADD17R,0.00420X0.00060*%
%ADD18R,0.00480X0.00060*%
%ADD19R,0.02100X0.00060*%
%ADD20R,0.00840X0.00060*%
%ADD21R,0.01980X0.00060*%
%ADD22R,0.01080X0.00060*%
%ADD23R,0.01500X0.00060*%
%ADD24R,0.01920X0.00060*%
%ADD25R,0.00660X0.00060*%
%ADD26R,0.00720X0.00060*%
%ADD27R,0.01320X0.00060*%
%ADD28R,0.01260X0.00060*%
%ADD29R,0.02340X0.00060*%
%ADD30R,0.01860X0.00060*%
%ADD31R,0.02160X0.00060*%
%ADD32R,0.01440X0.00060*%
%ADD33R,0.01380X0.00060*%
%ADD34R,0.00840X0.00060*%
%ADD35R,0.00900X0.00060*%
%ADD36R,0.00960X0.00060*%
%ADD37R,0.00540X0.00060*%
%ADD38R,0.01560X0.00060*%
%ADD39R,0.01140X0.00060*%
%ADD40R,0.02040X0.00060*%
%ADD41R,0.01020X0.00060*%
%ADD42R,0.00360X0.00060*%
%ADD43R,0.00240X0.00060*%
%ADD44R,0.00540X0.00060*%
%ADD45R,0.00180X0.00060*%
%ADD46R,0.01200X0.00060*%
%ADD47R,0.00120X0.00060*%
%ADD48R,0.01800X0.00060*%
%ADD49R,0.00120X0.00060*%
%ADD50R,0.00300X0.00060*%
%ADD51R,0.01140X0.00060*%
%ADD52R,0.03240X0.00060*%
%ADD53R,0.03180X0.00060*%
%ADD54R,0.03240X0.00060*%
%ADD55R,0.01620X0.00060*%
%ADD56R,0.01320X0.00060*%
%ADD57R,0.01680X0.00060*%
%ADD58R,0.01740X0.00060*%
%ADD59R,0.02220X0.00060*%
%ADD60R,0.01620X0.00060*%
%ADD61R,0.01920X0.00060*%
%ADD62R,0.02280X0.00060*%
%ADD63R,0.02220X0.00060*%
%ADD64R,0.02400X0.00060*%
%ADD65C,0.00600*%
%ADD66C,0.00500*%
D10*
X0110311Y0025194D03*
X0110431Y0025194D03*
X0110551Y0025194D03*
X0113551Y0025194D03*
X0113671Y0025194D03*
X0117091Y0025194D03*
X0119371Y0025194D03*
X0119491Y0025194D03*
X0119611Y0025194D03*
X0120871Y0022014D03*
X0122851Y0021054D03*
X0125371Y0022014D03*
X0129091Y0025194D03*
X0134371Y0025194D03*
X0134671Y0025194D03*
X0135631Y0023874D03*
X0136231Y0022014D03*
X0134071Y0021054D03*
X0133951Y0021054D03*
X0133831Y0021054D03*
X0133051Y0021174D03*
X0132451Y0021054D03*
X0139171Y0023034D03*
X0139291Y0023034D03*
X0139411Y0023034D03*
X0139531Y0023034D03*
X0139651Y0023034D03*
X0139771Y0023034D03*
X0139891Y0023034D03*
X0140011Y0023034D03*
X0140131Y0023034D03*
X0140251Y0023034D03*
X0140371Y0023034D03*
X0142471Y0023574D03*
X0142711Y0023754D03*
X0143071Y0023814D03*
X0144091Y0023574D03*
X0145771Y0022914D03*
X0148771Y0023814D03*
X0148891Y0023814D03*
X0149491Y0023574D03*
X0149731Y0023754D03*
X0150091Y0023814D03*
X0129211Y0031254D03*
X0127351Y0032034D03*
X0126151Y0031254D03*
X0120751Y0031014D03*
X0120391Y0030954D03*
X0120151Y0030774D03*
X0116431Y0030114D03*
X0114751Y0030774D03*
X0112831Y0029454D03*
X0109471Y0028254D03*
D11*
X0109741Y0028794D03*
X0112621Y0030234D03*
X0112681Y0030294D03*
X0112741Y0030414D03*
X0112801Y0030474D03*
X0113221Y0029634D03*
X0113461Y0029754D03*
X0113581Y0029814D03*
X0113641Y0029874D03*
X0113701Y0029934D03*
X0113761Y0029994D03*
X0113881Y0030174D03*
X0113821Y0031014D03*
X0115321Y0030474D03*
X0115261Y0030234D03*
X0115261Y0030174D03*
X0115201Y0030054D03*
X0115201Y0029994D03*
X0115201Y0029934D03*
X0115141Y0029814D03*
X0115141Y0029754D03*
X0115141Y0029694D03*
X0115081Y0029574D03*
X0115441Y0030954D03*
X0116461Y0030894D03*
X0117661Y0030354D03*
X0117721Y0030474D03*
X0117781Y0030534D03*
X0117361Y0028374D03*
X0118621Y0028374D03*
X0119041Y0024954D03*
X0118921Y0024834D03*
X0120001Y0024834D03*
X0120061Y0024714D03*
X0120061Y0024654D03*
X0120061Y0024054D03*
X0120061Y0023994D03*
X0120001Y0023874D03*
X0118261Y0022734D03*
X0118261Y0022674D03*
X0118201Y0022614D03*
X0118081Y0021714D03*
X0118081Y0021654D03*
X0119341Y0021354D03*
X0119401Y0021414D03*
X0119461Y0021474D03*
X0120901Y0021174D03*
X0122581Y0021594D03*
X0124201Y0022254D03*
X0124201Y0022314D03*
X0124201Y0022374D03*
X0125401Y0021174D03*
X0123301Y0023994D03*
X0128821Y0025074D03*
X0135541Y0024654D03*
X0136261Y0021174D03*
X0143401Y0024474D03*
X0143401Y0025074D03*
X0144781Y0023754D03*
X0144661Y0023274D03*
X0144601Y0023034D03*
X0144601Y0022974D03*
X0144541Y0022854D03*
X0144541Y0022794D03*
X0144541Y0022734D03*
X0144481Y0022614D03*
X0144481Y0022554D03*
X0144481Y0022494D03*
X0144421Y0022374D03*
X0145801Y0023694D03*
X0146941Y0023094D03*
X0147001Y0023154D03*
X0147061Y0023274D03*
X0147121Y0023334D03*
X0147661Y0023754D03*
X0146701Y0021174D03*
X0150421Y0024474D03*
X0150421Y0025074D03*
X0121081Y0031674D03*
X0121081Y0032274D03*
X0116821Y0025074D03*
X0114181Y0024294D03*
X0114181Y0024234D03*
X0112981Y0024654D03*
X0112921Y0024594D03*
X0112861Y0024474D03*
X0110881Y0023634D03*
X0110821Y0023514D03*
X0110761Y0023394D03*
X0112141Y0021954D03*
X0112141Y0021894D03*
X0112141Y0021834D03*
X0112681Y0021114D03*
X0113341Y0021594D03*
X0113401Y0021654D03*
X0113461Y0021774D03*
D12*
X0113521Y0021894D03*
X0113701Y0022314D03*
X0112201Y0022314D03*
X0112201Y0022374D03*
X0112201Y0022434D03*
X0112201Y0022494D03*
X0112801Y0024294D03*
X0114121Y0023934D03*
X0114121Y0023874D03*
X0114121Y0023814D03*
X0114121Y0023754D03*
X0116221Y0023274D03*
X0116221Y0023214D03*
X0116161Y0023034D03*
X0116101Y0022854D03*
X0116101Y0022794D03*
X0115921Y0022194D03*
X0115861Y0022014D03*
X0115861Y0021954D03*
X0115801Y0021774D03*
X0116401Y0023814D03*
X0116401Y0023874D03*
X0116461Y0024054D03*
X0116461Y0024114D03*
X0116521Y0024294D03*
X0118801Y0024534D03*
X0118801Y0024594D03*
X0119701Y0022134D03*
X0119701Y0022074D03*
X0119701Y0022014D03*
X0119701Y0021954D03*
X0120901Y0021834D03*
X0120901Y0021234D03*
X0118801Y0021114D03*
X0124201Y0022614D03*
X0124201Y0022674D03*
X0125401Y0021834D03*
X0125401Y0021234D03*
X0127801Y0021774D03*
X0127861Y0021954D03*
X0127861Y0022014D03*
X0127921Y0022194D03*
X0128101Y0022794D03*
X0128101Y0022854D03*
X0128161Y0023034D03*
X0128221Y0023214D03*
X0128221Y0023274D03*
X0128401Y0023814D03*
X0128401Y0023874D03*
X0128461Y0024054D03*
X0128461Y0024114D03*
X0128521Y0024294D03*
X0133861Y0024714D03*
X0134761Y0021534D03*
X0136261Y0021834D03*
X0136261Y0021234D03*
X0142561Y0021594D03*
X0142561Y0021654D03*
X0142621Y0021834D03*
X0142621Y0021894D03*
X0142801Y0022434D03*
X0142801Y0022494D03*
X0142801Y0022554D03*
X0142861Y0022674D03*
X0142861Y0022734D03*
X0142921Y0022854D03*
X0142921Y0022914D03*
X0143161Y0023754D03*
X0143401Y0025014D03*
X0144661Y0023514D03*
X0144661Y0023454D03*
X0144421Y0022074D03*
X0144421Y0022014D03*
X0144361Y0021894D03*
X0144361Y0021834D03*
X0144361Y0021774D03*
X0144301Y0021714D03*
X0144301Y0021654D03*
X0144301Y0021594D03*
X0146701Y0022494D03*
X0146701Y0022554D03*
X0146761Y0022674D03*
X0146761Y0022734D03*
X0146821Y0022854D03*
X0148201Y0022614D03*
X0148201Y0022554D03*
X0148201Y0022494D03*
X0148261Y0022674D03*
X0148261Y0022734D03*
X0148261Y0022794D03*
X0148321Y0022914D03*
X0148321Y0022974D03*
X0148321Y0023034D03*
X0148501Y0023514D03*
X0148561Y0023694D03*
X0148561Y0023754D03*
X0150061Y0023334D03*
X0150061Y0023274D03*
X0150001Y0023154D03*
X0150001Y0023094D03*
X0149821Y0022554D03*
X0149821Y0022494D03*
X0149821Y0022434D03*
X0149761Y0022314D03*
X0149761Y0022254D03*
X0149701Y0022134D03*
X0149701Y0022074D03*
X0149701Y0022014D03*
X0148021Y0021834D03*
X0147961Y0021714D03*
X0147961Y0021654D03*
X0147961Y0021534D03*
X0147961Y0021174D03*
X0150421Y0025014D03*
X0126661Y0031974D03*
X0120721Y0030534D03*
X0120721Y0030474D03*
X0120661Y0030354D03*
X0120661Y0030294D03*
X0120601Y0030114D03*
X0120601Y0030054D03*
X0120421Y0029514D03*
X0120421Y0029454D03*
X0120361Y0029334D03*
X0120361Y0029274D03*
X0120361Y0029214D03*
X0120301Y0029094D03*
X0120301Y0029034D03*
X0118861Y0029754D03*
X0118861Y0029814D03*
X0118921Y0029874D03*
X0118921Y0029934D03*
X0118921Y0029994D03*
X0118801Y0029634D03*
X0118621Y0028914D03*
X0118621Y0028854D03*
X0118621Y0028794D03*
X0117301Y0029514D03*
X0117301Y0029574D03*
X0117361Y0029694D03*
X0117361Y0029754D03*
X0117361Y0029814D03*
X0117421Y0029874D03*
X0117421Y0029934D03*
X0116401Y0030714D03*
X0116401Y0030774D03*
X0115321Y0030714D03*
X0115321Y0030654D03*
X0114001Y0030414D03*
X0112561Y0030114D03*
X0112501Y0029994D03*
X0112261Y0029214D03*
X0109801Y0028974D03*
X0109801Y0028914D03*
X0110401Y0025134D03*
X0111001Y0024054D03*
X0111001Y0023994D03*
X0114901Y0028554D03*
X0114901Y0028614D03*
X0114901Y0028674D03*
X0114961Y0028794D03*
X0114961Y0028854D03*
X0114961Y0028914D03*
X0115021Y0028974D03*
X0115021Y0029034D03*
X0115021Y0029094D03*
X0119221Y0030954D03*
X0119221Y0031014D03*
X0119221Y0031074D03*
X0119401Y0031554D03*
X0119401Y0031614D03*
X0119401Y0031674D03*
X0119461Y0031734D03*
X0119461Y0031794D03*
X0119461Y0031854D03*
X0119461Y0031914D03*
D13*
X0121051Y0031614D03*
X0121051Y0031014D03*
X0121051Y0032334D03*
X0120271Y0028314D03*
X0113551Y0028674D03*
X0113251Y0030834D03*
X0109651Y0028614D03*
X0113971Y0024954D03*
X0112351Y0021294D03*
X0110071Y0022614D03*
X0110011Y0022554D03*
X0109951Y0022494D03*
X0120871Y0021114D03*
X0122551Y0021714D03*
X0124051Y0021834D03*
X0124111Y0021894D03*
X0125371Y0021114D03*
X0132751Y0021894D03*
X0129211Y0031854D03*
X0126451Y0031794D03*
X0143371Y0025134D03*
X0143371Y0024414D03*
X0143371Y0023814D03*
X0149611Y0021114D03*
D14*
X0149551Y0021534D03*
X0149611Y0021714D03*
X0149611Y0021774D03*
X0149671Y0021954D03*
X0149731Y0022194D03*
X0149791Y0022374D03*
X0149851Y0022614D03*
X0149911Y0022794D03*
X0149971Y0022974D03*
X0149971Y0023034D03*
X0150031Y0023214D03*
X0150091Y0023394D03*
X0150091Y0023454D03*
X0150391Y0024594D03*
X0150391Y0024894D03*
X0150391Y0024954D03*
X0148351Y0023154D03*
X0148351Y0023094D03*
X0148111Y0022314D03*
X0148111Y0022254D03*
X0148051Y0022194D03*
X0148051Y0022134D03*
X0147991Y0021234D03*
X0146731Y0021234D03*
X0146611Y0021654D03*
X0146551Y0021714D03*
X0146551Y0021774D03*
X0146551Y0021834D03*
X0146551Y0021894D03*
X0146551Y0021954D03*
X0146611Y0022194D03*
X0146611Y0022254D03*
X0145711Y0023394D03*
X0145711Y0023454D03*
X0144511Y0022314D03*
X0144511Y0022254D03*
X0144451Y0022194D03*
X0144451Y0022134D03*
X0144391Y0021954D03*
X0142771Y0022374D03*
X0142711Y0022194D03*
X0142651Y0021954D03*
X0142591Y0021774D03*
X0142591Y0021714D03*
X0142531Y0021534D03*
X0142831Y0022614D03*
X0142891Y0022794D03*
X0142951Y0022974D03*
X0142951Y0023034D03*
X0143011Y0023214D03*
X0143071Y0023394D03*
X0143071Y0023454D03*
X0143371Y0024594D03*
X0143371Y0024894D03*
X0143371Y0024954D03*
X0147631Y0023694D03*
X0135511Y0024774D03*
X0134071Y0024894D03*
X0133891Y0024774D03*
X0133831Y0024654D03*
X0133771Y0024594D03*
X0133771Y0024534D03*
X0133711Y0024474D03*
X0133711Y0024354D03*
X0133711Y0024294D03*
X0134911Y0021834D03*
X0134911Y0021774D03*
X0134851Y0021654D03*
X0134791Y0021594D03*
X0134731Y0021474D03*
X0134671Y0021414D03*
X0132871Y0021534D03*
X0128191Y0023094D03*
X0128191Y0023154D03*
X0128251Y0023334D03*
X0128251Y0023394D03*
X0128311Y0023514D03*
X0128311Y0023574D03*
X0128371Y0023754D03*
X0128431Y0023934D03*
X0128431Y0023994D03*
X0128491Y0024174D03*
X0128491Y0024234D03*
X0128551Y0024354D03*
X0128551Y0024414D03*
X0128551Y0024474D03*
X0128131Y0022974D03*
X0128131Y0022914D03*
X0128071Y0022734D03*
X0128071Y0022674D03*
X0128011Y0022554D03*
X0128011Y0022494D03*
X0127951Y0022314D03*
X0127951Y0022254D03*
X0127891Y0022134D03*
X0127891Y0022074D03*
X0127831Y0021894D03*
X0127831Y0021834D03*
X0127771Y0021714D03*
X0127711Y0021534D03*
X0127711Y0021474D03*
X0124171Y0022734D03*
X0124171Y0022794D03*
X0124171Y0022854D03*
X0122611Y0021534D03*
X0122911Y0021114D03*
X0119731Y0022194D03*
X0119671Y0022254D03*
X0119731Y0022314D03*
X0119671Y0022434D03*
X0118771Y0023994D03*
X0118771Y0024054D03*
X0118771Y0024114D03*
X0116551Y0024354D03*
X0116551Y0024414D03*
X0116551Y0024474D03*
X0116491Y0024234D03*
X0116491Y0024174D03*
X0116431Y0023994D03*
X0116431Y0023934D03*
X0116371Y0023754D03*
X0116311Y0023574D03*
X0116311Y0023514D03*
X0116251Y0023394D03*
X0116251Y0023334D03*
X0116191Y0023154D03*
X0116191Y0023094D03*
X0116131Y0022974D03*
X0116131Y0022914D03*
X0116071Y0022734D03*
X0116071Y0022674D03*
X0116011Y0022554D03*
X0116011Y0022494D03*
X0115951Y0022314D03*
X0115951Y0022254D03*
X0115891Y0022134D03*
X0115891Y0022074D03*
X0115831Y0021894D03*
X0115831Y0021834D03*
X0115771Y0021714D03*
X0115711Y0021534D03*
X0115711Y0021474D03*
X0113671Y0022194D03*
X0113671Y0022254D03*
X0113731Y0022374D03*
X0113731Y0022434D03*
X0113791Y0022554D03*
X0113851Y0022734D03*
X0113911Y0022914D03*
X0113971Y0023154D03*
X0114031Y0023334D03*
X0114031Y0023394D03*
X0114031Y0023454D03*
X0114031Y0023514D03*
X0114091Y0023574D03*
X0114091Y0023634D03*
X0114091Y0023694D03*
X0112711Y0024114D03*
X0112651Y0024054D03*
X0112651Y0023994D03*
X0112651Y0023934D03*
X0112591Y0023874D03*
X0112591Y0023814D03*
X0112531Y0023694D03*
X0112471Y0023514D03*
X0112411Y0023334D03*
X0112351Y0023094D03*
X0112291Y0022914D03*
X0112291Y0022854D03*
X0112291Y0022734D03*
X0112231Y0022674D03*
X0112231Y0022614D03*
X0112231Y0022554D03*
X0110971Y0024114D03*
X0110971Y0024174D03*
X0110971Y0024234D03*
X0112771Y0028314D03*
X0112291Y0028914D03*
X0112291Y0029034D03*
X0112231Y0029094D03*
X0112291Y0029154D03*
X0112291Y0029274D03*
X0112291Y0029334D03*
X0112291Y0029394D03*
X0112351Y0029634D03*
X0109831Y0029034D03*
X0115051Y0029154D03*
X0115111Y0029334D03*
X0115111Y0029394D03*
X0115171Y0029454D03*
X0115171Y0029514D03*
X0116371Y0030594D03*
X0116371Y0030654D03*
X0117331Y0029634D03*
X0117271Y0029454D03*
X0117271Y0029394D03*
X0117211Y0029154D03*
X0117211Y0029094D03*
X0117211Y0029034D03*
X0117211Y0028974D03*
X0117271Y0028854D03*
X0117391Y0028434D03*
X0118651Y0028434D03*
X0118711Y0029394D03*
X0118771Y0029454D03*
X0118771Y0029514D03*
X0118771Y0029574D03*
X0118831Y0029694D03*
X0119071Y0030534D03*
X0119071Y0030594D03*
X0119071Y0030654D03*
X0119491Y0031974D03*
X0119491Y0032034D03*
X0121051Y0032094D03*
X0121051Y0032154D03*
X0121051Y0031794D03*
X0120751Y0030654D03*
X0120751Y0030594D03*
X0120691Y0030414D03*
X0120631Y0030234D03*
X0120631Y0030174D03*
X0120571Y0029994D03*
X0120511Y0029814D03*
X0120451Y0029574D03*
X0120391Y0029394D03*
X0120331Y0029154D03*
X0120271Y0028974D03*
X0120271Y0028914D03*
X0120211Y0028734D03*
D15*
X0120841Y0028674D03*
X0118021Y0028854D03*
X0115921Y0030294D03*
X0115741Y0030054D03*
X0113881Y0028914D03*
X0113821Y0028854D03*
X0111541Y0030714D03*
X0111481Y0030654D03*
X0111181Y0030294D03*
X0111121Y0030234D03*
X0110821Y0029874D03*
X0111901Y0031134D03*
X0109441Y0024414D03*
X0109381Y0024354D03*
X0110881Y0021954D03*
X0123181Y0024114D03*
X0123181Y0024174D03*
X0123241Y0024294D03*
X0123301Y0024414D03*
X0126241Y0031494D03*
X0126301Y0031554D03*
X0126301Y0031614D03*
X0129241Y0031614D03*
X0129241Y0031554D03*
X0129241Y0031494D03*
X0135841Y0025074D03*
X0135601Y0024174D03*
X0132781Y0022254D03*
X0132781Y0022194D03*
X0132541Y0021174D03*
X0132481Y0021114D03*
X0145081Y0022854D03*
X0145201Y0023034D03*
X0145801Y0022974D03*
X0147421Y0021714D03*
X0150181Y0021474D03*
X0119881Y0032394D03*
D16*
X0124351Y0028494D03*
X0119371Y0023034D03*
X0115711Y0021354D03*
X0112711Y0021234D03*
X0110851Y0024534D03*
X0112471Y0028674D03*
X0109951Y0029334D03*
X0127711Y0021354D03*
X0133951Y0021114D03*
X0134371Y0021294D03*
X0134851Y0022494D03*
X0138151Y0021414D03*
X0142651Y0021354D03*
X0144571Y0023634D03*
X0148051Y0021414D03*
X0148051Y0021354D03*
X0149671Y0021354D03*
D17*
X0150391Y0023814D03*
X0150391Y0024414D03*
X0150391Y0025134D03*
X0147691Y0023814D03*
X0145831Y0023754D03*
X0144931Y0023814D03*
X0142591Y0021114D03*
X0136231Y0021114D03*
X0123691Y0021414D03*
X0114091Y0024774D03*
X0114091Y0024834D03*
X0114031Y0024894D03*
X0112231Y0021474D03*
X0112231Y0021414D03*
X0112291Y0021354D03*
X0110131Y0022674D03*
X0109891Y0022434D03*
X0109831Y0022374D03*
X0113131Y0030774D03*
X0112531Y0031914D03*
X0115591Y0031014D03*
X0116491Y0030954D03*
X0126391Y0031734D03*
D18*
X0126481Y0031854D03*
X0118381Y0031014D03*
X0116461Y0030294D03*
X0117361Y0028314D03*
X0118621Y0028314D03*
X0119881Y0023694D03*
X0119821Y0023634D03*
X0119761Y0023574D03*
X0118561Y0023034D03*
X0118501Y0022974D03*
X0118441Y0022914D03*
X0118321Y0022794D03*
X0118201Y0021414D03*
X0118321Y0021294D03*
X0120901Y0021954D03*
X0124141Y0021954D03*
X0124141Y0022014D03*
X0125401Y0021954D03*
X0132781Y0021834D03*
X0136261Y0021954D03*
X0135601Y0024474D03*
X0135601Y0024534D03*
X0145801Y0023094D03*
X0147301Y0023574D03*
X0146701Y0021114D03*
X0147961Y0021114D03*
X0114121Y0024654D03*
X0114121Y0024714D03*
X0113221Y0024954D03*
X0113161Y0024894D03*
X0113101Y0024834D03*
X0110581Y0023154D03*
X0110521Y0023094D03*
X0110401Y0022914D03*
X0110341Y0022854D03*
X0110281Y0022794D03*
X0110221Y0022734D03*
X0110701Y0021834D03*
X0112201Y0021594D03*
X0112201Y0021534D03*
X0113101Y0021294D03*
X0113161Y0021354D03*
X0113221Y0021414D03*
X0109621Y0024594D03*
X0109681Y0028674D03*
X0112921Y0030594D03*
X0112981Y0030654D03*
X0113041Y0030714D03*
X0112561Y0031974D03*
D19*
X0123331Y0030414D03*
X0109651Y0021354D03*
X0109591Y0021234D03*
X0109591Y0021174D03*
D20*
X0112681Y0021174D03*
X0112321Y0022974D03*
X0112321Y0023034D03*
X0112381Y0023154D03*
X0112381Y0023214D03*
X0112381Y0023274D03*
X0112441Y0023394D03*
X0112441Y0023454D03*
X0112501Y0023574D03*
X0112501Y0023634D03*
X0113941Y0023094D03*
X0113941Y0023034D03*
X0113941Y0022974D03*
X0113881Y0022854D03*
X0113881Y0022794D03*
X0113821Y0022674D03*
X0113821Y0022614D03*
X0114001Y0023214D03*
X0114001Y0023274D03*
X0115741Y0021594D03*
X0116581Y0024534D03*
X0116581Y0024594D03*
X0116701Y0025014D03*
X0118801Y0023934D03*
X0118801Y0023874D03*
X0119641Y0022614D03*
X0119641Y0022554D03*
X0119701Y0022374D03*
X0120901Y0021774D03*
X0120901Y0021714D03*
X0120901Y0021354D03*
X0120901Y0021294D03*
X0122641Y0021474D03*
X0124141Y0022914D03*
X0125401Y0021774D03*
X0125401Y0021714D03*
X0125401Y0021354D03*
X0125401Y0021294D03*
X0127741Y0021594D03*
X0128581Y0024534D03*
X0128581Y0024594D03*
X0128701Y0025014D03*
X0127141Y0029334D03*
X0127201Y0029514D03*
X0127321Y0029934D03*
X0127441Y0030354D03*
X0127501Y0030534D03*
X0127621Y0030954D03*
X0127681Y0031134D03*
X0127741Y0031374D03*
X0127801Y0031554D03*
X0127921Y0031974D03*
X0123781Y0030174D03*
X0123781Y0030114D03*
X0123841Y0029994D03*
X0123841Y0029934D03*
X0123841Y0029874D03*
X0123901Y0029754D03*
X0123901Y0029694D03*
X0124021Y0029334D03*
X0124021Y0029274D03*
X0124081Y0029154D03*
X0124081Y0029094D03*
X0124141Y0028914D03*
X0124201Y0028734D03*
X0122401Y0029214D03*
X0122401Y0029274D03*
X0122401Y0029334D03*
X0122341Y0029154D03*
X0122341Y0029094D03*
X0122341Y0029034D03*
X0122281Y0028914D03*
X0122281Y0028854D03*
X0122521Y0029634D03*
X0122521Y0029694D03*
X0122521Y0029754D03*
X0122581Y0029874D03*
X0122581Y0029934D03*
X0122641Y0030054D03*
X0122641Y0030114D03*
X0122641Y0030174D03*
X0122821Y0030714D03*
X0122821Y0030774D03*
X0122881Y0030894D03*
X0122881Y0030954D03*
X0122881Y0031014D03*
X0122941Y0031134D03*
X0122941Y0031194D03*
X0123001Y0031314D03*
X0123001Y0031374D03*
X0123001Y0031434D03*
X0123121Y0031734D03*
X0123121Y0031794D03*
X0121081Y0031854D03*
X0121081Y0031914D03*
X0121081Y0031974D03*
X0121081Y0032034D03*
X0120721Y0030714D03*
X0119101Y0030714D03*
X0118321Y0030894D03*
X0118681Y0029334D03*
X0118681Y0029274D03*
X0118621Y0029214D03*
X0118621Y0029154D03*
X0118681Y0028494D03*
X0117241Y0028914D03*
X0116341Y0030534D03*
X0115201Y0029634D03*
X0112321Y0029454D03*
X0112321Y0028854D03*
X0112321Y0028794D03*
X0109921Y0029154D03*
X0109921Y0029574D03*
X0109921Y0029634D03*
X0109921Y0029694D03*
X0109921Y0029754D03*
X0109921Y0029814D03*
X0109921Y0029874D03*
X0109921Y0029934D03*
X0109921Y0029994D03*
X0109921Y0030054D03*
X0109921Y0030174D03*
X0109921Y0030294D03*
X0109981Y0030714D03*
X0109981Y0030834D03*
X0109981Y0030954D03*
X0109981Y0031014D03*
X0109981Y0031074D03*
X0109981Y0031134D03*
X0109981Y0031194D03*
X0109981Y0031254D03*
X0109981Y0031314D03*
X0109981Y0031374D03*
X0109981Y0031494D03*
X0109981Y0031614D03*
X0112621Y0032154D03*
X0119521Y0032274D03*
X0120241Y0028674D03*
X0120301Y0028434D03*
X0111001Y0024294D03*
X0110941Y0024354D03*
X0132901Y0021474D03*
X0134581Y0021354D03*
X0134941Y0021894D03*
X0134941Y0021954D03*
X0134941Y0022014D03*
X0134941Y0022074D03*
X0134941Y0022134D03*
X0133741Y0024054D03*
X0133741Y0024174D03*
X0133741Y0024414D03*
X0133981Y0024834D03*
X0135481Y0024834D03*
X0138841Y0023754D03*
X0138901Y0023934D03*
X0138781Y0023574D03*
X0138721Y0023334D03*
X0138601Y0022914D03*
X0138541Y0022734D03*
X0138481Y0022494D03*
X0138421Y0022314D03*
X0138301Y0021894D03*
X0140701Y0022134D03*
X0140821Y0022554D03*
X0140881Y0022734D03*
X0140941Y0022974D03*
X0141121Y0023574D03*
X0141241Y0023994D03*
X0141301Y0024174D03*
X0143041Y0023514D03*
X0143401Y0024654D03*
X0143401Y0024714D03*
X0143401Y0024774D03*
X0143401Y0024834D03*
X0144541Y0022434D03*
X0145681Y0023334D03*
X0148021Y0022074D03*
X0148381Y0023274D03*
X0148381Y0023334D03*
X0148381Y0023394D03*
X0148381Y0023454D03*
X0149581Y0021474D03*
X0149641Y0021234D03*
X0150421Y0024654D03*
X0150421Y0024714D03*
X0150421Y0024774D03*
X0150421Y0024834D03*
X0142621Y0021234D03*
X0139021Y0024354D03*
D21*
X0141511Y0025014D03*
X0141511Y0025074D03*
X0127651Y0021234D03*
X0127651Y0021174D03*
X0126871Y0028374D03*
X0115651Y0021234D03*
X0115651Y0021174D03*
X0109831Y0021534D03*
D22*
X0113581Y0025014D03*
X0116581Y0024954D03*
X0119461Y0025074D03*
X0120361Y0028614D03*
X0118741Y0028674D03*
X0117421Y0028614D03*
X0119401Y0032214D03*
X0112741Y0028374D03*
X0110041Y0029394D03*
X0110041Y0029454D03*
X0110041Y0032094D03*
X0118801Y0021174D03*
X0122941Y0021174D03*
X0123961Y0023214D03*
X0123901Y0023274D03*
X0128581Y0024954D03*
X0133861Y0023754D03*
X0133921Y0023634D03*
X0133981Y0023574D03*
X0134701Y0022734D03*
X0134761Y0022674D03*
X0134761Y0022614D03*
X0134821Y0022554D03*
X0139141Y0024834D03*
X0141481Y0024834D03*
X0142681Y0021414D03*
X0146761Y0021414D03*
X0148141Y0021474D03*
X0149701Y0021414D03*
D23*
X0133891Y0021174D03*
X0128311Y0024774D03*
X0128311Y0024834D03*
X0124231Y0025014D03*
X0124231Y0025074D03*
X0123511Y0023574D03*
X0116311Y0024774D03*
X0116311Y0024834D03*
D24*
X0109861Y0021594D03*
X0122161Y0028374D03*
X0126901Y0028434D03*
X0139201Y0025074D03*
X0140461Y0021234D03*
X0140461Y0021174D03*
X0138121Y0021174D03*
D25*
X0136231Y0021894D03*
X0132811Y0021654D03*
X0125371Y0021894D03*
X0124231Y0022434D03*
X0124231Y0022494D03*
X0124231Y0022554D03*
X0120871Y0021894D03*
X0119671Y0021894D03*
X0119611Y0021714D03*
X0119551Y0021654D03*
X0119551Y0021594D03*
X0119491Y0021534D03*
X0119251Y0021294D03*
X0118051Y0021774D03*
X0118051Y0021834D03*
X0118051Y0021894D03*
X0118051Y0021954D03*
X0118051Y0022014D03*
X0118051Y0022074D03*
X0118051Y0022134D03*
X0118051Y0022194D03*
X0118111Y0022314D03*
X0118111Y0022374D03*
X0118111Y0022434D03*
X0118171Y0022494D03*
X0118171Y0022554D03*
X0118831Y0024654D03*
X0118831Y0024714D03*
X0118891Y0024774D03*
X0119131Y0025014D03*
X0120091Y0024594D03*
X0120091Y0024534D03*
X0120091Y0024474D03*
X0120091Y0024414D03*
X0120091Y0024354D03*
X0120091Y0024294D03*
X0120091Y0024234D03*
X0120091Y0024174D03*
X0120091Y0024114D03*
X0120031Y0023934D03*
X0120271Y0028374D03*
X0118591Y0028734D03*
X0118651Y0028974D03*
X0118951Y0030054D03*
X0119011Y0030234D03*
X0119191Y0030894D03*
X0119371Y0031494D03*
X0118351Y0030954D03*
X0117691Y0030414D03*
X0117631Y0030294D03*
X0117571Y0030234D03*
X0117571Y0030174D03*
X0117511Y0030114D03*
X0117511Y0030054D03*
X0116431Y0030834D03*
X0115351Y0030594D03*
X0115351Y0030534D03*
X0115291Y0030414D03*
X0115291Y0030354D03*
X0115291Y0030294D03*
X0115231Y0030114D03*
X0115171Y0029874D03*
X0114931Y0028734D03*
X0114871Y0028494D03*
X0113791Y0030054D03*
X0113851Y0030114D03*
X0113911Y0030234D03*
X0113971Y0030294D03*
X0113971Y0030354D03*
X0114031Y0030474D03*
X0114031Y0030534D03*
X0114031Y0030594D03*
X0114031Y0030654D03*
X0114031Y0030714D03*
X0114031Y0030774D03*
X0113971Y0030834D03*
X0112711Y0030354D03*
X0112591Y0030174D03*
X0112531Y0030054D03*
X0112471Y0029934D03*
X0112591Y0032094D03*
X0109771Y0028854D03*
X0110971Y0023874D03*
X0110911Y0023754D03*
X0110911Y0023694D03*
X0110851Y0023574D03*
X0112171Y0022254D03*
X0112171Y0022194D03*
X0112171Y0022134D03*
X0112171Y0022074D03*
X0112171Y0022014D03*
X0113431Y0021714D03*
X0113491Y0021834D03*
X0113551Y0021954D03*
X0114151Y0023994D03*
X0114151Y0024054D03*
X0114151Y0024114D03*
X0114151Y0024174D03*
X0113611Y0025134D03*
X0112891Y0024534D03*
X0112831Y0024414D03*
X0112831Y0024354D03*
X0121051Y0031734D03*
X0126571Y0031914D03*
X0129151Y0031974D03*
X0143371Y0024534D03*
X0144691Y0023394D03*
X0144691Y0023334D03*
X0144631Y0023214D03*
X0144631Y0023154D03*
X0144631Y0023094D03*
X0144571Y0022914D03*
X0144511Y0022674D03*
X0144271Y0021534D03*
X0144211Y0021294D03*
X0142591Y0021174D03*
X0145771Y0023634D03*
X0146911Y0023034D03*
X0146911Y0022974D03*
X0146851Y0022914D03*
X0146791Y0022794D03*
X0146731Y0022614D03*
X0147031Y0023214D03*
X0148291Y0022854D03*
X0148531Y0023574D03*
X0148531Y0023634D03*
X0147991Y0021774D03*
X0147931Y0021594D03*
X0149611Y0021174D03*
X0150391Y0024534D03*
D26*
X0150181Y0023754D03*
X0149941Y0022914D03*
X0149941Y0022854D03*
X0149881Y0022734D03*
X0149881Y0022674D03*
X0149641Y0021894D03*
X0149641Y0021834D03*
X0149581Y0021654D03*
X0149581Y0021594D03*
X0148141Y0022374D03*
X0148141Y0022434D03*
X0148381Y0023214D03*
X0146641Y0022434D03*
X0146641Y0022374D03*
X0146641Y0022314D03*
X0146581Y0022134D03*
X0146581Y0022074D03*
X0146581Y0022014D03*
X0145741Y0023514D03*
X0145741Y0023574D03*
X0144241Y0021474D03*
X0144241Y0021414D03*
X0144241Y0021354D03*
X0144181Y0021234D03*
X0144181Y0021174D03*
X0142681Y0022014D03*
X0142681Y0022074D03*
X0142681Y0022134D03*
X0142741Y0022254D03*
X0142741Y0022314D03*
X0142981Y0023094D03*
X0142981Y0023154D03*
X0143041Y0023274D03*
X0143041Y0023334D03*
X0135541Y0024714D03*
X0134881Y0021714D03*
X0132841Y0021594D03*
X0128041Y0022614D03*
X0127981Y0022434D03*
X0127981Y0022374D03*
X0127741Y0021654D03*
X0128281Y0023454D03*
X0128341Y0023634D03*
X0128341Y0023694D03*
X0119641Y0021834D03*
X0119641Y0021774D03*
X0118081Y0022254D03*
X0118741Y0024174D03*
X0118741Y0024234D03*
X0118741Y0024294D03*
X0118741Y0024354D03*
X0118741Y0024414D03*
X0118741Y0024474D03*
X0116341Y0023694D03*
X0116341Y0023634D03*
X0116281Y0023454D03*
X0116041Y0022614D03*
X0115981Y0022434D03*
X0115981Y0022374D03*
X0115741Y0021654D03*
X0113641Y0022134D03*
X0113581Y0022074D03*
X0113581Y0022014D03*
X0112741Y0024174D03*
X0112741Y0024234D03*
X0110941Y0023934D03*
X0110941Y0023814D03*
X0114841Y0028374D03*
X0114841Y0028434D03*
X0115081Y0029214D03*
X0115081Y0029274D03*
X0117241Y0029274D03*
X0117241Y0029334D03*
X0117241Y0029214D03*
X0117481Y0029994D03*
X0118681Y0029094D03*
X0118681Y0029034D03*
X0118981Y0030114D03*
X0118981Y0030174D03*
X0119041Y0030294D03*
X0119041Y0030354D03*
X0119041Y0030414D03*
X0119041Y0030474D03*
X0119281Y0031134D03*
X0119281Y0031194D03*
X0119281Y0031254D03*
X0119341Y0031314D03*
X0119341Y0031374D03*
X0119341Y0031434D03*
X0120841Y0030954D03*
X0120541Y0029934D03*
X0120541Y0029874D03*
X0120481Y0029754D03*
X0120481Y0029694D03*
X0120481Y0029634D03*
X0120241Y0028854D03*
X0120241Y0028794D03*
X0121081Y0032214D03*
X0112441Y0029874D03*
X0112441Y0029814D03*
X0112381Y0029754D03*
X0112381Y0029694D03*
D27*
X0112801Y0028434D03*
X0110401Y0024954D03*
X0116401Y0024894D03*
X0119221Y0023514D03*
X0118801Y0021234D03*
X0122161Y0028494D03*
X0126901Y0028494D03*
X0128401Y0024894D03*
D28*
X0127651Y0021294D03*
X0123751Y0023394D03*
X0122971Y0021234D03*
X0124471Y0028374D03*
X0124471Y0028434D03*
X0117451Y0028794D03*
X0112591Y0029514D03*
X0115651Y0021294D03*
X0146791Y0021594D03*
D29*
X0133591Y0021234D03*
D30*
X0138151Y0021234D03*
X0139171Y0025014D03*
X0123211Y0030294D03*
X0122191Y0028434D03*
X0110371Y0024654D03*
X0109951Y0021714D03*
X0109891Y0021654D03*
D31*
X0109621Y0021294D03*
X0123361Y0032274D03*
X0134881Y0025014D03*
D32*
X0123001Y0021294D03*
X0112801Y0028494D03*
D33*
X0112651Y0029574D03*
X0119131Y0023094D03*
X0123511Y0023634D03*
X0133111Y0021294D03*
X0134611Y0025074D03*
X0139171Y0024954D03*
X0141511Y0024954D03*
X0140491Y0021294D03*
X0138151Y0021294D03*
D34*
X0138361Y0022074D03*
X0136261Y0021774D03*
X0136261Y0021714D03*
X0136261Y0021354D03*
X0136261Y0021294D03*
X0138961Y0024174D03*
X0141361Y0024414D03*
X0142561Y0021474D03*
X0147961Y0021954D03*
X0147961Y0022014D03*
X0150061Y0023514D03*
X0129061Y0032034D03*
X0127261Y0029754D03*
X0123961Y0029574D03*
X0123961Y0029514D03*
X0122461Y0029514D03*
X0122461Y0029454D03*
X0122761Y0030474D03*
X0122761Y0030534D03*
X0122761Y0030594D03*
X0123061Y0031554D03*
X0123061Y0031614D03*
X0119461Y0025134D03*
X0118861Y0023814D03*
X0118861Y0023754D03*
X0123361Y0023934D03*
X0113761Y0022494D03*
X0112261Y0022794D03*
X0112561Y0023754D03*
X0112261Y0028974D03*
X0109861Y0029094D03*
D35*
X0109951Y0030114D03*
X0109951Y0030234D03*
X0109951Y0030354D03*
X0109951Y0030414D03*
X0109951Y0030474D03*
X0109951Y0030534D03*
X0109951Y0030594D03*
X0109951Y0030654D03*
X0109951Y0030774D03*
X0109951Y0030894D03*
X0110011Y0031434D03*
X0110011Y0031554D03*
X0110011Y0031674D03*
X0110011Y0031734D03*
X0110011Y0031794D03*
X0110011Y0031854D03*
X0110011Y0031914D03*
X0115291Y0030894D03*
X0115291Y0030774D03*
X0116311Y0030474D03*
X0116311Y0030414D03*
X0117391Y0028494D03*
X0119071Y0030774D03*
X0119071Y0030834D03*
X0119431Y0032094D03*
X0120691Y0030774D03*
X0122671Y0030234D03*
X0122611Y0029994D03*
X0122551Y0029814D03*
X0122491Y0029574D03*
X0122431Y0029394D03*
X0122311Y0028974D03*
X0122251Y0028794D03*
X0122251Y0028734D03*
X0123991Y0029394D03*
X0123991Y0029454D03*
X0123931Y0029634D03*
X0123871Y0029814D03*
X0123811Y0030054D03*
X0123751Y0030234D03*
X0124291Y0030594D03*
X0124471Y0030714D03*
X0124531Y0030834D03*
X0124591Y0030894D03*
X0124651Y0030954D03*
X0124651Y0031014D03*
X0124711Y0031074D03*
X0124711Y0031134D03*
X0124771Y0031314D03*
X0124771Y0031374D03*
X0124771Y0031434D03*
X0124771Y0031494D03*
X0124771Y0031554D03*
X0124711Y0031674D03*
X0124711Y0031734D03*
X0124711Y0031794D03*
X0124651Y0031854D03*
X0124651Y0031914D03*
X0123151Y0031914D03*
X0123151Y0031974D03*
X0123151Y0032034D03*
X0123151Y0031854D03*
X0123091Y0031674D03*
X0123031Y0031494D03*
X0122971Y0031254D03*
X0122911Y0031074D03*
X0122851Y0030834D03*
X0122791Y0030654D03*
X0124051Y0029214D03*
X0124111Y0029034D03*
X0124111Y0028974D03*
X0124171Y0028854D03*
X0124171Y0028794D03*
X0124231Y0028674D03*
X0126991Y0028794D03*
X0126991Y0028854D03*
X0126991Y0028914D03*
X0127051Y0028974D03*
X0127051Y0029034D03*
X0127051Y0029094D03*
X0127111Y0029154D03*
X0127111Y0029214D03*
X0127111Y0029274D03*
X0127171Y0029394D03*
X0127171Y0029454D03*
X0127231Y0029574D03*
X0127231Y0029634D03*
X0127231Y0029694D03*
X0127291Y0029814D03*
X0127291Y0029874D03*
X0127351Y0029994D03*
X0127351Y0030054D03*
X0127351Y0030114D03*
X0127411Y0030174D03*
X0127411Y0030234D03*
X0127411Y0030294D03*
X0127471Y0030414D03*
X0127471Y0030474D03*
X0127531Y0030594D03*
X0127531Y0030654D03*
X0127531Y0030714D03*
X0127591Y0030774D03*
X0127591Y0030834D03*
X0127591Y0030894D03*
X0127651Y0031014D03*
X0127651Y0031074D03*
X0127711Y0031194D03*
X0127711Y0031254D03*
X0127711Y0031314D03*
X0127771Y0031434D03*
X0127771Y0031494D03*
X0127831Y0031614D03*
X0127831Y0031674D03*
X0127831Y0031734D03*
X0127891Y0031794D03*
X0127891Y0031854D03*
X0127891Y0031914D03*
X0127951Y0032034D03*
X0128551Y0024654D03*
X0127711Y0021414D03*
X0124111Y0022974D03*
X0124051Y0023034D03*
X0124051Y0023094D03*
X0119671Y0022494D03*
X0119611Y0022674D03*
X0119551Y0022734D03*
X0119551Y0022794D03*
X0119491Y0022854D03*
X0118951Y0023634D03*
X0118891Y0023694D03*
X0116551Y0024654D03*
X0113611Y0025074D03*
X0110911Y0024474D03*
X0110911Y0024414D03*
X0115711Y0021414D03*
X0120331Y0028494D03*
X0133711Y0024234D03*
X0133711Y0024114D03*
X0133771Y0023934D03*
X0134911Y0022314D03*
X0134911Y0022254D03*
X0134971Y0022194D03*
X0138211Y0021654D03*
X0138211Y0021594D03*
X0138271Y0021714D03*
X0138271Y0021774D03*
X0138271Y0021834D03*
X0138331Y0021954D03*
X0138331Y0022014D03*
X0138391Y0022134D03*
X0138391Y0022194D03*
X0138391Y0022254D03*
X0138451Y0022374D03*
X0138451Y0022434D03*
X0138511Y0022554D03*
X0138511Y0022614D03*
X0138511Y0022674D03*
X0138571Y0022794D03*
X0138571Y0022854D03*
X0138631Y0022974D03*
X0138631Y0023034D03*
X0138751Y0023394D03*
X0138751Y0023454D03*
X0138751Y0023514D03*
X0138811Y0023634D03*
X0138811Y0023694D03*
X0138871Y0023814D03*
X0138871Y0023874D03*
X0138931Y0023994D03*
X0138931Y0024054D03*
X0138931Y0024114D03*
X0138991Y0024234D03*
X0138991Y0024294D03*
X0139051Y0024414D03*
X0139051Y0024474D03*
X0139051Y0024534D03*
X0139111Y0024594D03*
X0139111Y0024654D03*
X0141211Y0023934D03*
X0141211Y0023874D03*
X0141211Y0023814D03*
X0141151Y0023754D03*
X0141151Y0023694D03*
X0141151Y0023634D03*
X0141091Y0023514D03*
X0141091Y0023454D03*
X0141091Y0023394D03*
X0141031Y0023334D03*
X0140911Y0022914D03*
X0140911Y0022854D03*
X0140911Y0022794D03*
X0140851Y0022674D03*
X0140851Y0022614D03*
X0140791Y0022494D03*
X0140791Y0022434D03*
X0140791Y0022374D03*
X0140731Y0022314D03*
X0140731Y0022254D03*
X0140731Y0022194D03*
X0140671Y0022074D03*
X0140671Y0022014D03*
X0140671Y0021954D03*
X0140611Y0021894D03*
X0140611Y0021834D03*
X0140611Y0021774D03*
X0140551Y0021714D03*
X0140551Y0021654D03*
X0140551Y0021594D03*
X0142651Y0021294D03*
X0143011Y0023574D03*
X0144631Y0023574D03*
X0144631Y0023694D03*
X0145651Y0023274D03*
X0145651Y0023214D03*
X0146731Y0021294D03*
X0147931Y0021894D03*
X0149671Y0021294D03*
X0150031Y0023574D03*
X0141451Y0024654D03*
X0141391Y0024594D03*
X0141391Y0024534D03*
X0141391Y0024474D03*
X0141331Y0024354D03*
X0141331Y0024294D03*
X0141331Y0024234D03*
X0141271Y0024114D03*
X0141271Y0024054D03*
D36*
X0141421Y0024714D03*
X0141481Y0024774D03*
X0140941Y0023034D03*
X0140521Y0021534D03*
X0140521Y0021474D03*
X0138181Y0021474D03*
X0138181Y0021534D03*
X0136261Y0021534D03*
X0136261Y0021594D03*
X0136261Y0021654D03*
X0136261Y0021474D03*
X0136261Y0021414D03*
X0134881Y0022374D03*
X0134881Y0022434D03*
X0133801Y0023874D03*
X0133741Y0023994D03*
X0134521Y0025134D03*
X0135421Y0024894D03*
X0139141Y0024774D03*
X0139141Y0024714D03*
X0146761Y0021354D03*
X0148021Y0021294D03*
X0128521Y0024714D03*
X0126961Y0028674D03*
X0126961Y0028734D03*
X0124261Y0028614D03*
X0124021Y0030474D03*
X0124201Y0030534D03*
X0124381Y0030654D03*
X0124501Y0030774D03*
X0124741Y0031194D03*
X0124741Y0031254D03*
X0124741Y0031614D03*
X0124561Y0031974D03*
X0124501Y0032034D03*
X0126781Y0032034D03*
X0122221Y0028674D03*
X0118741Y0028614D03*
X0118681Y0028554D03*
X0117421Y0028554D03*
X0116521Y0024714D03*
X0118981Y0023574D03*
X0119401Y0022974D03*
X0119461Y0022914D03*
X0120901Y0021654D03*
X0120901Y0021594D03*
X0120901Y0021534D03*
X0120901Y0021474D03*
X0120901Y0021414D03*
X0122701Y0021414D03*
X0124021Y0023154D03*
X0123421Y0023874D03*
X0125401Y0021654D03*
X0125401Y0021594D03*
X0125401Y0021534D03*
X0125401Y0021474D03*
X0125401Y0021414D03*
X0113761Y0030954D03*
X0112381Y0028734D03*
X0109981Y0029274D03*
X0109921Y0029214D03*
X0110041Y0031974D03*
X0110041Y0032034D03*
D37*
X0112591Y0032034D03*
X0112891Y0030534D03*
X0113371Y0029694D03*
X0116431Y0030354D03*
X0117871Y0030654D03*
X0117931Y0030714D03*
X0117991Y0030774D03*
X0118051Y0030834D03*
X0119671Y0032334D03*
X0119791Y0025014D03*
X0119971Y0024894D03*
X0120031Y0024774D03*
X0119971Y0023814D03*
X0119971Y0023754D03*
X0118951Y0024894D03*
X0118351Y0022854D03*
X0118171Y0021474D03*
X0118231Y0021354D03*
X0122551Y0021654D03*
X0124171Y0022074D03*
X0124171Y0022134D03*
X0124171Y0022194D03*
X0114151Y0024354D03*
X0114151Y0024414D03*
X0114151Y0024474D03*
X0114151Y0024534D03*
X0114151Y0024594D03*
X0113071Y0024774D03*
X0110791Y0023454D03*
X0110731Y0023334D03*
X0110671Y0023274D03*
X0110491Y0023034D03*
X0110431Y0022974D03*
X0112171Y0021774D03*
X0112171Y0021714D03*
X0112171Y0021654D03*
X0113251Y0021474D03*
X0135571Y0024594D03*
X0145771Y0023154D03*
X0147151Y0023394D03*
X0147271Y0023514D03*
X0147391Y0023634D03*
D38*
X0124201Y0024894D03*
X0124201Y0024954D03*
X0124141Y0024834D03*
X0124141Y0024774D03*
X0124081Y0024654D03*
X0123541Y0023514D03*
X0123001Y0021354D03*
X0110401Y0024894D03*
D39*
X0110791Y0024594D03*
X0110071Y0029514D03*
X0112591Y0032214D03*
X0112591Y0032274D03*
X0113731Y0030894D03*
X0117451Y0028734D03*
X0117451Y0028674D03*
X0120631Y0030834D03*
X0120631Y0030894D03*
X0119371Y0032154D03*
X0122191Y0028554D03*
X0126931Y0028554D03*
X0123451Y0023814D03*
X0132991Y0021354D03*
X0134671Y0022794D03*
X0134131Y0023394D03*
X0134071Y0023454D03*
X0138151Y0021354D03*
X0140491Y0021354D03*
X0142951Y0023634D03*
X0142951Y0023694D03*
X0139171Y0024894D03*
X0146791Y0021474D03*
X0149971Y0023634D03*
X0149971Y0023694D03*
D40*
X0109741Y0021474D03*
X0109741Y0021414D03*
D41*
X0110431Y0025074D03*
X0115231Y0030834D03*
X0120331Y0028554D03*
X0122191Y0028614D03*
X0124291Y0028554D03*
X0126931Y0028614D03*
X0133831Y0023814D03*
X0133891Y0023694D03*
X0132931Y0021414D03*
X0140491Y0021414D03*
X0119191Y0023214D03*
X0119191Y0023274D03*
X0119131Y0023334D03*
X0119131Y0023394D03*
D42*
X0116941Y0025134D03*
X0113641Y0028734D03*
X0116461Y0030234D03*
X0112501Y0031854D03*
X0112441Y0031794D03*
X0109621Y0028554D03*
X0109801Y0022314D03*
X0109741Y0022254D03*
X0109681Y0022194D03*
X0123781Y0021474D03*
X0123841Y0021534D03*
X0123901Y0021594D03*
X0123961Y0021654D03*
X0124021Y0021714D03*
X0124021Y0021774D03*
X0128941Y0025134D03*
X0132781Y0022014D03*
X0132781Y0021954D03*
X0135601Y0024414D03*
X0129241Y0031734D03*
X0129241Y0031794D03*
X0145801Y0023034D03*
D43*
X0145261Y0023094D03*
X0147361Y0021654D03*
X0143161Y0021474D03*
X0116461Y0030174D03*
X0115861Y0030234D03*
X0112261Y0031554D03*
X0111961Y0031194D03*
X0110761Y0029814D03*
X0109561Y0028374D03*
D44*
X0109711Y0028734D03*
X0113011Y0024714D03*
X0110611Y0023214D03*
X0113311Y0021534D03*
X0118111Y0021534D03*
X0118111Y0021594D03*
X0119911Y0024954D03*
X0117811Y0030594D03*
X0129211Y0031914D03*
X0132811Y0021774D03*
X0132811Y0021714D03*
X0147211Y0023454D03*
D45*
X0147991Y0023574D03*
X0147991Y0023634D03*
X0147511Y0021834D03*
X0147451Y0021774D03*
X0148591Y0021534D03*
X0148651Y0021594D03*
X0148711Y0021654D03*
X0148771Y0021774D03*
X0150271Y0021594D03*
X0150271Y0021534D03*
X0150331Y0021654D03*
X0150391Y0021714D03*
X0145171Y0022974D03*
X0145111Y0022914D03*
X0145051Y0022794D03*
X0144991Y0022674D03*
X0144931Y0022554D03*
X0144871Y0022374D03*
X0143371Y0021714D03*
X0143311Y0021654D03*
X0143251Y0021594D03*
X0143251Y0021534D03*
X0135631Y0023994D03*
X0135631Y0024054D03*
X0135631Y0024114D03*
X0135871Y0025134D03*
X0132751Y0022434D03*
X0132751Y0022374D03*
X0132751Y0022314D03*
X0121051Y0028914D03*
X0120991Y0028854D03*
X0120931Y0028794D03*
X0120931Y0028734D03*
X0119371Y0028914D03*
X0119311Y0028854D03*
X0119311Y0028794D03*
X0119251Y0028734D03*
X0118171Y0029034D03*
X0118111Y0028974D03*
X0118051Y0028914D03*
X0115831Y0030174D03*
X0115771Y0030114D03*
X0115711Y0029994D03*
X0115651Y0029874D03*
X0115591Y0029754D03*
X0115531Y0029574D03*
X0113971Y0028974D03*
X0109531Y0028314D03*
X0109351Y0024294D03*
X0110971Y0022134D03*
X0110911Y0022074D03*
X0110911Y0022014D03*
X0126151Y0031314D03*
X0126211Y0031434D03*
D46*
X0123481Y0023754D03*
X0123841Y0023334D03*
X0119161Y0023454D03*
X0119161Y0023154D03*
X0110401Y0025014D03*
X0110041Y0032154D03*
X0134161Y0023334D03*
X0134221Y0023274D03*
X0134281Y0023214D03*
X0134341Y0023154D03*
X0134401Y0023094D03*
X0134461Y0023034D03*
X0134521Y0022974D03*
X0134581Y0022914D03*
X0146821Y0021534D03*
D47*
X0148741Y0021714D03*
X0150481Y0021834D03*
X0132781Y0022494D03*
X0132781Y0022554D03*
X0121141Y0029034D03*
X0121081Y0028974D03*
X0121081Y0031554D03*
X0121081Y0032394D03*
X0126181Y0031374D03*
X0129241Y0031374D03*
X0129241Y0031434D03*
X0129241Y0031314D03*
X0115681Y0029934D03*
D48*
X0110401Y0024714D03*
X0109981Y0021774D03*
D49*
X0111001Y0022194D03*
X0109321Y0024234D03*
X0114001Y0029034D03*
X0115561Y0029694D03*
X0115621Y0029814D03*
X0118201Y0029094D03*
X0119401Y0028974D03*
X0134521Y0025194D03*
X0135901Y0025194D03*
X0135601Y0023934D03*
X0143401Y0024354D03*
X0143401Y0025194D03*
X0145021Y0022734D03*
X0144961Y0022614D03*
X0144901Y0022494D03*
X0143461Y0021834D03*
X0143401Y0021774D03*
X0148021Y0023514D03*
X0150421Y0024354D03*
X0150421Y0025194D03*
X0150421Y0021774D03*
D50*
X0145831Y0023814D03*
X0145291Y0023154D03*
X0135631Y0024234D03*
X0135631Y0024294D03*
X0135631Y0024354D03*
X0132751Y0022134D03*
X0132751Y0022074D03*
X0123271Y0024354D03*
X0123211Y0024234D03*
X0123151Y0024054D03*
X0126331Y0031674D03*
X0129271Y0031674D03*
X0116491Y0031014D03*
X0115951Y0030354D03*
X0113731Y0028794D03*
X0111451Y0030594D03*
X0111391Y0030534D03*
X0111331Y0030474D03*
X0111271Y0030414D03*
X0111211Y0030354D03*
X0111091Y0030174D03*
X0111031Y0030114D03*
X0110971Y0030054D03*
X0110911Y0029994D03*
X0110851Y0029934D03*
X0110731Y0029754D03*
X0110671Y0029694D03*
X0110611Y0029634D03*
X0110551Y0029574D03*
X0109591Y0028494D03*
X0109591Y0028434D03*
X0111571Y0030774D03*
X0111631Y0030834D03*
X0111691Y0030894D03*
X0111751Y0030954D03*
X0111811Y0031014D03*
X0111871Y0031074D03*
X0111991Y0031254D03*
X0112051Y0031314D03*
X0112111Y0031374D03*
X0112171Y0031434D03*
X0112231Y0031494D03*
X0112291Y0031614D03*
X0112351Y0031674D03*
X0112411Y0031734D03*
X0109531Y0024534D03*
X0109471Y0024474D03*
X0109591Y0022134D03*
X0109531Y0022074D03*
X0109471Y0022014D03*
X0109411Y0021954D03*
X0109351Y0021894D03*
X0109291Y0021834D03*
X0110791Y0021894D03*
D51*
X0134011Y0023514D03*
X0134611Y0022854D03*
X0141511Y0024894D03*
D52*
X0139801Y0023094D03*
X0127921Y0032094D03*
X0127921Y0032154D03*
D53*
X0127951Y0032214D03*
X0127951Y0032274D03*
X0139831Y0023154D03*
D54*
X0139861Y0023214D03*
X0139861Y0023274D03*
D55*
X0124111Y0024714D03*
X0124051Y0024594D03*
X0124051Y0024534D03*
X0123571Y0023454D03*
X0110371Y0024834D03*
X0110071Y0032274D03*
D56*
X0123481Y0023694D03*
D57*
X0124021Y0024474D03*
X0110041Y0032214D03*
D58*
X0112831Y0028614D03*
X0110371Y0024774D03*
D59*
X0134851Y0024954D03*
D60*
X0112831Y0028554D03*
D61*
X0123241Y0030354D03*
D62*
X0123781Y0032094D03*
D63*
X0123691Y0032154D03*
D64*
X0123481Y0032214D03*
D65*
X0014489Y0015364D02*
X0014489Y0011961D01*
X0014489Y0013096D02*
X0016190Y0013096D01*
X0016758Y0013663D01*
X0016758Y0014797D01*
X0016190Y0015364D01*
X0014489Y0015364D01*
X0018172Y0015364D02*
X0019306Y0015364D01*
X0018739Y0015364D02*
X0018739Y0011961D01*
X0018172Y0011961D02*
X0019306Y0011961D01*
X0020628Y0011961D02*
X0022896Y0011961D01*
X0021762Y0011961D02*
X0021762Y0015364D01*
X0020628Y0014230D01*
X0030237Y0013096D02*
X0031938Y0013096D01*
X0032506Y0013663D01*
X0032506Y0014797D01*
X0031938Y0015364D01*
X0030237Y0015364D01*
X0030237Y0011961D01*
X0033920Y0011961D02*
X0035054Y0011961D01*
X0034487Y0011961D02*
X0034487Y0015364D01*
X0033920Y0015364D02*
X0035054Y0015364D01*
X0036376Y0014797D02*
X0036943Y0015364D01*
X0038077Y0015364D01*
X0038644Y0014797D01*
X0038644Y0014230D01*
X0036376Y0011961D01*
X0038644Y0011961D01*
X0045985Y0011961D02*
X0045985Y0015364D01*
X0047686Y0015364D01*
X0048254Y0014797D01*
X0048254Y0013663D01*
X0047686Y0013096D01*
X0045985Y0013096D01*
X0049668Y0011961D02*
X0050802Y0011961D01*
X0050235Y0011961D02*
X0050235Y0015364D01*
X0049668Y0015364D02*
X0050802Y0015364D01*
X0052124Y0014797D02*
X0052691Y0015364D01*
X0053825Y0015364D01*
X0054392Y0014797D01*
X0054392Y0014230D01*
X0053825Y0013663D01*
X0054392Y0013096D01*
X0054392Y0012529D01*
X0053825Y0011961D01*
X0052691Y0011961D01*
X0052124Y0012529D01*
X0053258Y0013663D02*
X0053825Y0013663D01*
X0062914Y0022962D02*
X0063481Y0022394D01*
X0064048Y0022394D01*
X0064616Y0022962D01*
X0064616Y0025797D01*
X0065183Y0025797D02*
X0064048Y0025797D01*
X0066597Y0025230D02*
X0067164Y0025797D01*
X0068299Y0025797D01*
X0068866Y0025230D01*
X0068866Y0024663D01*
X0066597Y0022394D01*
X0068866Y0022394D01*
X0113308Y0015364D02*
X0113308Y0011961D01*
X0113308Y0013096D02*
X0115009Y0013096D01*
X0115576Y0013663D01*
X0115576Y0014797D01*
X0115009Y0015364D01*
X0113308Y0015364D01*
X0116991Y0015364D02*
X0118125Y0015364D01*
X0117558Y0015364D02*
X0117558Y0011961D01*
X0116991Y0011961D02*
X0118125Y0011961D01*
X0119446Y0013663D02*
X0121715Y0013663D01*
X0121148Y0015364D02*
X0119446Y0013663D01*
X0121148Y0011961D02*
X0121148Y0015364D01*
X0128662Y0015364D02*
X0128662Y0011961D01*
X0128662Y0013096D02*
X0130364Y0013096D01*
X0130931Y0013663D01*
X0130931Y0014797D01*
X0130364Y0015364D01*
X0128662Y0015364D01*
X0132345Y0015364D02*
X0133480Y0015364D01*
X0132913Y0015364D02*
X0132913Y0011961D01*
X0133480Y0011961D02*
X0132345Y0011961D01*
X0134801Y0012529D02*
X0135368Y0011961D01*
X0136502Y0011961D01*
X0137069Y0012529D01*
X0137069Y0013663D01*
X0136502Y0014230D01*
X0135935Y0014230D01*
X0134801Y0013663D01*
X0134801Y0015364D01*
X0137069Y0015364D01*
X0144017Y0015364D02*
X0144017Y0011961D01*
X0144017Y0013096D02*
X0145718Y0013096D01*
X0146285Y0013663D01*
X0146285Y0014797D01*
X0145718Y0015364D01*
X0144017Y0015364D01*
X0147700Y0015364D02*
X0148834Y0015364D01*
X0148267Y0015364D02*
X0148267Y0011961D01*
X0147700Y0011961D02*
X0148834Y0011961D01*
X0150155Y0012529D02*
X0150155Y0013663D01*
X0151857Y0013663D01*
X0152424Y0013096D01*
X0152424Y0012529D01*
X0151857Y0011961D01*
X0150722Y0011961D01*
X0150155Y0012529D01*
X0150155Y0013663D02*
X0151289Y0014797D01*
X0152424Y0015364D01*
D66*
X0090567Y0009102D02*
X0071669Y0009102D01*
X0071669Y0023276D01*
X0090567Y0023276D01*
X0090567Y0009102D01*
X0083677Y0025835D02*
X0083679Y0025874D01*
X0083685Y0025913D01*
X0083695Y0025951D01*
X0083708Y0025988D01*
X0083725Y0026023D01*
X0083745Y0026057D01*
X0083769Y0026088D01*
X0083796Y0026117D01*
X0083825Y0026143D01*
X0083857Y0026166D01*
X0083891Y0026186D01*
X0083927Y0026202D01*
X0083964Y0026214D01*
X0084003Y0026223D01*
X0084042Y0026228D01*
X0084081Y0026229D01*
X0084120Y0026226D01*
X0084159Y0026219D01*
X0084196Y0026208D01*
X0084233Y0026194D01*
X0084268Y0026176D01*
X0084301Y0026155D01*
X0084332Y0026130D01*
X0084360Y0026103D01*
X0084385Y0026073D01*
X0084407Y0026040D01*
X0084426Y0026006D01*
X0084441Y0025970D01*
X0084453Y0025932D01*
X0084461Y0025894D01*
X0084465Y0025855D01*
X0084465Y0025815D01*
X0084461Y0025776D01*
X0084453Y0025738D01*
X0084441Y0025700D01*
X0084426Y0025664D01*
X0084407Y0025630D01*
X0084385Y0025597D01*
X0084360Y0025567D01*
X0084332Y0025540D01*
X0084301Y0025515D01*
X0084268Y0025494D01*
X0084233Y0025476D01*
X0084196Y0025462D01*
X0084159Y0025451D01*
X0084120Y0025444D01*
X0084081Y0025441D01*
X0084042Y0025442D01*
X0084003Y0025447D01*
X0083964Y0025456D01*
X0083927Y0025468D01*
X0083891Y0025484D01*
X0083857Y0025504D01*
X0083825Y0025527D01*
X0083796Y0025553D01*
X0083769Y0025582D01*
X0083745Y0025613D01*
X0083725Y0025647D01*
X0083708Y0025682D01*
X0083695Y0025719D01*
X0083685Y0025757D01*
X0083679Y0025796D01*
X0083677Y0025835D01*
X0077181Y0026228D02*
X0075213Y0026228D01*
X0076197Y0025244D01*
X0077181Y0026228D01*
M02*
