G75*
%MOIN*%
%OFA0B0*%
%FSLAX25Y25*%
%IPPOS*%
%LPD*%
%AMOC8*
5,1,8,0,0,1.08239X$1,22.5*
%
%ADD10C,0.00000*%
D10*
X0012417Y0008906D02*
X0150213Y0008906D01*
X0150337Y0008908D01*
X0150460Y0008914D01*
X0150584Y0008923D01*
X0150706Y0008937D01*
X0150829Y0008954D01*
X0150951Y0008976D01*
X0151072Y0009001D01*
X0151192Y0009030D01*
X0151311Y0009062D01*
X0151430Y0009099D01*
X0151547Y0009139D01*
X0151662Y0009182D01*
X0151777Y0009230D01*
X0151889Y0009281D01*
X0152000Y0009335D01*
X0152110Y0009393D01*
X0152217Y0009454D01*
X0152323Y0009519D01*
X0152426Y0009587D01*
X0152527Y0009658D01*
X0152626Y0009732D01*
X0152723Y0009809D01*
X0152817Y0009890D01*
X0152908Y0009973D01*
X0152997Y0010059D01*
X0153083Y0010148D01*
X0153166Y0010239D01*
X0153247Y0010333D01*
X0153324Y0010430D01*
X0153398Y0010529D01*
X0153469Y0010630D01*
X0153537Y0010733D01*
X0153602Y0010839D01*
X0153663Y0010946D01*
X0153721Y0011056D01*
X0153775Y0011167D01*
X0153826Y0011279D01*
X0153874Y0011394D01*
X0153917Y0011509D01*
X0153957Y0011626D01*
X0153994Y0011745D01*
X0154026Y0011864D01*
X0154055Y0011984D01*
X0154080Y0012105D01*
X0154102Y0012227D01*
X0154119Y0012350D01*
X0154133Y0012472D01*
X0154142Y0012596D01*
X0154148Y0012719D01*
X0154150Y0012843D01*
X0154150Y0032528D01*
X0154148Y0032652D01*
X0154142Y0032775D01*
X0154133Y0032899D01*
X0154119Y0033021D01*
X0154102Y0033144D01*
X0154080Y0033266D01*
X0154055Y0033387D01*
X0154026Y0033507D01*
X0153994Y0033626D01*
X0153957Y0033745D01*
X0153917Y0033862D01*
X0153874Y0033977D01*
X0153826Y0034092D01*
X0153775Y0034204D01*
X0153721Y0034315D01*
X0153663Y0034425D01*
X0153602Y0034532D01*
X0153537Y0034638D01*
X0153469Y0034741D01*
X0153398Y0034842D01*
X0153324Y0034941D01*
X0153247Y0035038D01*
X0153166Y0035132D01*
X0153083Y0035223D01*
X0152997Y0035312D01*
X0152908Y0035398D01*
X0152817Y0035481D01*
X0152723Y0035562D01*
X0152626Y0035639D01*
X0152527Y0035713D01*
X0152426Y0035784D01*
X0152323Y0035852D01*
X0152217Y0035917D01*
X0152110Y0035978D01*
X0152000Y0036036D01*
X0151889Y0036090D01*
X0151777Y0036141D01*
X0151662Y0036189D01*
X0151547Y0036232D01*
X0151430Y0036272D01*
X0151311Y0036309D01*
X0151192Y0036341D01*
X0151072Y0036370D01*
X0150951Y0036395D01*
X0150829Y0036417D01*
X0150706Y0036434D01*
X0150584Y0036448D01*
X0150460Y0036457D01*
X0150337Y0036463D01*
X0150213Y0036465D01*
X0012417Y0036465D01*
X0012293Y0036463D01*
X0012170Y0036457D01*
X0012046Y0036448D01*
X0011924Y0036434D01*
X0011801Y0036417D01*
X0011679Y0036395D01*
X0011558Y0036370D01*
X0011438Y0036341D01*
X0011319Y0036309D01*
X0011200Y0036272D01*
X0011083Y0036232D01*
X0010968Y0036189D01*
X0010853Y0036141D01*
X0010741Y0036090D01*
X0010630Y0036036D01*
X0010520Y0035978D01*
X0010413Y0035917D01*
X0010307Y0035852D01*
X0010204Y0035784D01*
X0010103Y0035713D01*
X0010004Y0035639D01*
X0009907Y0035562D01*
X0009813Y0035481D01*
X0009722Y0035398D01*
X0009633Y0035312D01*
X0009547Y0035223D01*
X0009464Y0035132D01*
X0009383Y0035038D01*
X0009306Y0034941D01*
X0009232Y0034842D01*
X0009161Y0034741D01*
X0009093Y0034638D01*
X0009028Y0034532D01*
X0008967Y0034425D01*
X0008909Y0034315D01*
X0008855Y0034204D01*
X0008804Y0034092D01*
X0008756Y0033977D01*
X0008713Y0033862D01*
X0008673Y0033745D01*
X0008636Y0033626D01*
X0008604Y0033507D01*
X0008575Y0033387D01*
X0008550Y0033266D01*
X0008528Y0033144D01*
X0008511Y0033021D01*
X0008497Y0032899D01*
X0008488Y0032775D01*
X0008482Y0032652D01*
X0008480Y0032528D01*
X0008480Y0012843D01*
X0008482Y0012719D01*
X0008488Y0012596D01*
X0008497Y0012472D01*
X0008511Y0012350D01*
X0008528Y0012227D01*
X0008550Y0012105D01*
X0008575Y0011984D01*
X0008604Y0011864D01*
X0008636Y0011745D01*
X0008673Y0011626D01*
X0008713Y0011509D01*
X0008756Y0011394D01*
X0008804Y0011279D01*
X0008855Y0011167D01*
X0008909Y0011056D01*
X0008967Y0010946D01*
X0009028Y0010839D01*
X0009093Y0010733D01*
X0009161Y0010630D01*
X0009232Y0010529D01*
X0009306Y0010430D01*
X0009383Y0010333D01*
X0009464Y0010239D01*
X0009547Y0010148D01*
X0009633Y0010059D01*
X0009722Y0009973D01*
X0009813Y0009890D01*
X0009907Y0009809D01*
X0010004Y0009732D01*
X0010103Y0009658D01*
X0010204Y0009587D01*
X0010307Y0009519D01*
X0010413Y0009454D01*
X0010520Y0009393D01*
X0010630Y0009335D01*
X0010741Y0009281D01*
X0010853Y0009230D01*
X0010968Y0009182D01*
X0011083Y0009139D01*
X0011200Y0009099D01*
X0011319Y0009062D01*
X0011438Y0009030D01*
X0011558Y0009001D01*
X0011679Y0008976D01*
X0011801Y0008954D01*
X0011924Y0008937D01*
X0012046Y0008923D01*
X0012170Y0008914D01*
X0012293Y0008908D01*
X0012417Y0008906D01*
M02*
