G75*
%MOIN*%
%OFA0B0*%
%FSLAX25Y25*%
%IPPOS*%
%LPD*%
%AMOC8*
5,1,8,0,0,1.08239X$1,22.5*
%
%ADD10R,0.01181X0.03937*%
%ADD11R,0.01969X0.03937*%
%ADD12C,0.01200*%
%ADD13OC8,0.01969*%
%ADD14C,0.01000*%
%ADD15C,0.00600*%
D10*
X0076197Y0022488D03*
X0078165Y0022488D03*
X0080134Y0022488D03*
X0082102Y0022488D03*
X0084071Y0022488D03*
X0086039Y0022488D03*
D11*
X0089189Y0012055D03*
X0073047Y0012055D03*
D12*
X0080134Y0022488D02*
X0080134Y0028394D01*
X0150016Y0028394D01*
X0080134Y0028394D02*
X0078756Y0028394D01*
X0077772Y0029378D01*
D13*
X0077772Y0029378D03*
X0085449Y0031150D03*
X0093126Y0032921D03*
X0093126Y0026031D03*
X0092142Y0022685D03*
X0085252Y0018354D03*
X0086039Y0012055D03*
X0092535Y0012055D03*
X0077181Y0018157D03*
X0076394Y0012055D03*
X0069701Y0012055D03*
X0070882Y0022488D03*
X0056512Y0013236D03*
X0055921Y0019732D03*
X0051787Y0019339D03*
X0043913Y0015402D03*
X0036039Y0019339D03*
X0028362Y0015402D03*
X0020291Y0019339D03*
X0012417Y0015402D03*
X0011827Y0011661D03*
X0012417Y0032134D03*
X0016354Y0034299D03*
X0032102Y0034299D03*
X0047850Y0034299D03*
X0055921Y0027016D03*
X0069504Y0034299D03*
X0106512Y0026031D03*
X0110646Y0015402D03*
X0106709Y0013236D03*
X0118913Y0019339D03*
X0126787Y0015402D03*
X0134268Y0019339D03*
X0142339Y0015402D03*
X0141748Y0011858D03*
X0150213Y0019339D03*
X0150016Y0028394D03*
X0146276Y0034299D03*
X0130528Y0034299D03*
X0114780Y0034299D03*
D14*
X0110646Y0015402D02*
X0082102Y0015402D01*
X0082102Y0022488D01*
X0078165Y0022488D02*
X0078165Y0025441D01*
X0075409Y0028197D01*
X0075409Y0032134D01*
X0012417Y0032134D01*
X0012417Y0015402D02*
X0028362Y0015402D01*
X0043913Y0015402D01*
X0082102Y0015402D01*
X0085449Y0031150D02*
X0084465Y0032134D01*
X0075409Y0032134D01*
X0110646Y0015402D02*
X0126787Y0015402D01*
X0142339Y0015402D01*
D15*
X0010952Y0010650D02*
X0010225Y0011377D01*
X0009831Y0012328D01*
X0009780Y0012843D01*
X0009780Y0032528D01*
X0009831Y0033042D01*
X0010225Y0033993D01*
X0010952Y0034720D01*
X0011903Y0035114D01*
X0012417Y0035165D01*
X0150213Y0035165D01*
X0150727Y0035114D01*
X0151678Y0034720D01*
X0152405Y0033993D01*
X0152799Y0033042D01*
X0152850Y0032528D01*
X0152850Y0012843D01*
X0152799Y0012328D01*
X0152405Y0011377D01*
X0151678Y0010650D01*
X0150727Y0010256D01*
X0150213Y0010205D01*
X0091073Y0010205D01*
X0091073Y0011863D01*
X0089381Y0011863D01*
X0089381Y0012247D01*
X0091073Y0012247D01*
X0091073Y0014102D01*
X0109422Y0014102D01*
X0109907Y0013617D01*
X0111385Y0013617D01*
X0111869Y0014102D01*
X0125564Y0014102D01*
X0126048Y0013617D01*
X0127526Y0013617D01*
X0128011Y0014102D01*
X0141115Y0014102D01*
X0141600Y0013617D01*
X0143078Y0013617D01*
X0144123Y0014663D01*
X0144123Y0016141D01*
X0143078Y0017186D01*
X0141600Y0017186D01*
X0141115Y0016702D01*
X0128011Y0016702D01*
X0127526Y0017186D01*
X0126048Y0017186D01*
X0125564Y0016702D01*
X0111869Y0016702D01*
X0111385Y0017186D01*
X0109907Y0017186D01*
X0109422Y0016702D01*
X0083402Y0016702D01*
X0083402Y0019620D01*
X0084071Y0019620D01*
X0084840Y0019620D01*
X0085107Y0019730D01*
X0085117Y0019720D01*
X0086961Y0019720D01*
X0087430Y0020188D01*
X0087430Y0021585D01*
X0090718Y0021585D01*
X0091403Y0020901D01*
X0092881Y0020901D01*
X0093565Y0021585D01*
X0096017Y0021585D01*
X0099363Y0018239D01*
X0117490Y0018239D01*
X0118174Y0017554D01*
X0119652Y0017554D01*
X0120337Y0018239D01*
X0132844Y0018239D01*
X0133529Y0017554D01*
X0135007Y0017554D01*
X0135691Y0018239D01*
X0148789Y0018239D01*
X0149474Y0017554D01*
X0150952Y0017554D01*
X0151997Y0018600D01*
X0151997Y0020078D01*
X0150952Y0021123D01*
X0149474Y0021123D01*
X0148789Y0020439D01*
X0135691Y0020439D01*
X0135007Y0021123D01*
X0133529Y0021123D01*
X0132844Y0020439D01*
X0120337Y0020439D01*
X0119652Y0021123D01*
X0118174Y0021123D01*
X0117490Y0020439D01*
X0100275Y0020439D01*
X0097572Y0023141D01*
X0096928Y0023785D01*
X0093565Y0023785D01*
X0092881Y0024469D01*
X0091403Y0024469D01*
X0090718Y0023785D01*
X0087430Y0023785D01*
X0087430Y0024788D01*
X0086961Y0025257D01*
X0085117Y0025257D01*
X0085107Y0025246D01*
X0084840Y0025357D01*
X0084071Y0025357D01*
X0084071Y0022488D01*
X0084071Y0019620D01*
X0084071Y0022488D01*
X0084071Y0022488D01*
X0084071Y0022488D01*
X0084071Y0025357D01*
X0083301Y0025357D01*
X0083035Y0025246D01*
X0083024Y0025257D01*
X0081534Y0025257D01*
X0081534Y0026994D01*
X0148892Y0026994D01*
X0149277Y0026609D01*
X0150755Y0026609D01*
X0151800Y0027655D01*
X0151800Y0029133D01*
X0150755Y0030178D01*
X0149277Y0030178D01*
X0148892Y0029794D01*
X0086616Y0029794D01*
X0087233Y0030411D01*
X0087233Y0031889D01*
X0086188Y0032934D01*
X0085503Y0032934D01*
X0085003Y0033434D01*
X0013641Y0033434D01*
X0013156Y0033918D01*
X0011678Y0033918D01*
X0010633Y0032873D01*
X0010633Y0031395D01*
X0011678Y0030350D01*
X0013156Y0030350D01*
X0013641Y0030834D01*
X0074109Y0030834D01*
X0074109Y0027658D01*
X0076511Y0025257D01*
X0075275Y0025257D01*
X0074806Y0024788D01*
X0074806Y0023588D01*
X0072305Y0023588D01*
X0071621Y0024272D01*
X0070143Y0024272D01*
X0069098Y0023227D01*
X0069098Y0021749D01*
X0070143Y0020704D01*
X0071621Y0020704D01*
X0072305Y0021388D01*
X0074806Y0021388D01*
X0074806Y0020188D01*
X0075275Y0019720D01*
X0077119Y0019720D01*
X0077181Y0019782D01*
X0077243Y0019720D01*
X0079087Y0019720D01*
X0079150Y0019782D01*
X0079212Y0019720D01*
X0080802Y0019720D01*
X0080802Y0016702D01*
X0045137Y0016702D01*
X0044652Y0017186D01*
X0043174Y0017186D01*
X0042690Y0016702D01*
X0029586Y0016702D01*
X0029101Y0017186D01*
X0027623Y0017186D01*
X0027139Y0016702D01*
X0013641Y0016702D01*
X0013156Y0017186D01*
X0011678Y0017186D01*
X0010633Y0016141D01*
X0010633Y0014663D01*
X0011678Y0013617D01*
X0013156Y0013617D01*
X0013641Y0014102D01*
X0027139Y0014102D01*
X0027623Y0013617D01*
X0029101Y0013617D01*
X0029586Y0014102D01*
X0042690Y0014102D01*
X0043174Y0013617D01*
X0044652Y0013617D01*
X0045137Y0014102D01*
X0071163Y0014102D01*
X0071163Y0012247D01*
X0072855Y0012247D01*
X0072855Y0011863D01*
X0071163Y0011863D01*
X0071163Y0010205D01*
X0012417Y0010205D01*
X0011903Y0010256D01*
X0010952Y0010650D01*
X0011301Y0010506D02*
X0071163Y0010506D01*
X0070880Y0010205D02*
X0070880Y0014102D01*
X0071163Y0013706D02*
X0044741Y0013706D01*
X0045280Y0014102D02*
X0045280Y0010205D01*
X0043680Y0010205D02*
X0043680Y0013617D01*
X0043086Y0013706D02*
X0029189Y0013706D01*
X0029280Y0013796D02*
X0029280Y0010205D01*
X0027680Y0010205D02*
X0027680Y0013617D01*
X0027535Y0013706D02*
X0013245Y0013706D01*
X0013280Y0013741D02*
X0013280Y0010205D01*
X0014880Y0010205D02*
X0014880Y0014102D01*
X0016480Y0014102D02*
X0016480Y0010205D01*
X0018080Y0010205D02*
X0018080Y0014102D01*
X0019680Y0014102D02*
X0019680Y0010205D01*
X0021280Y0010205D02*
X0021280Y0014102D01*
X0022880Y0014102D02*
X0022880Y0010205D01*
X0024480Y0010205D02*
X0024480Y0014102D01*
X0026080Y0014102D02*
X0026080Y0010205D01*
X0030880Y0010205D02*
X0030880Y0014102D01*
X0032480Y0014102D02*
X0032480Y0010205D01*
X0034080Y0010205D02*
X0034080Y0014102D01*
X0035680Y0014102D02*
X0035680Y0010205D01*
X0037280Y0010205D02*
X0037280Y0014102D01*
X0038880Y0014102D02*
X0038880Y0010205D01*
X0040480Y0010205D02*
X0040480Y0014102D01*
X0042080Y0014102D02*
X0042080Y0010205D01*
X0046880Y0010205D02*
X0046880Y0014102D01*
X0048480Y0014102D02*
X0048480Y0010205D01*
X0050080Y0010205D02*
X0050080Y0014102D01*
X0051680Y0014102D02*
X0051680Y0010205D01*
X0053280Y0010205D02*
X0053280Y0014102D01*
X0054880Y0014102D02*
X0054880Y0010205D01*
X0056480Y0010205D02*
X0056480Y0014102D01*
X0058080Y0014102D02*
X0058080Y0010205D01*
X0059680Y0010205D02*
X0059680Y0014102D01*
X0061280Y0014102D02*
X0061280Y0010205D01*
X0062880Y0010205D02*
X0062880Y0014102D01*
X0064480Y0014102D02*
X0064480Y0010205D01*
X0066080Y0010205D02*
X0066080Y0014102D01*
X0067680Y0014102D02*
X0067680Y0010205D01*
X0069280Y0010205D02*
X0069280Y0014102D01*
X0069280Y0016702D02*
X0069280Y0021566D01*
X0069141Y0021706D02*
X0009780Y0021706D01*
X0009780Y0023306D02*
X0069176Y0023306D01*
X0069280Y0023410D02*
X0069280Y0030834D01*
X0067680Y0030834D02*
X0067680Y0016702D01*
X0066080Y0016702D02*
X0066080Y0030834D01*
X0064480Y0030834D02*
X0064480Y0016702D01*
X0062880Y0016702D02*
X0062880Y0030834D01*
X0061280Y0030834D02*
X0061280Y0016702D01*
X0059680Y0016702D02*
X0059680Y0030834D01*
X0058080Y0030834D02*
X0058080Y0016702D01*
X0056480Y0016702D02*
X0056480Y0030834D01*
X0054880Y0030834D02*
X0054880Y0016702D01*
X0053280Y0016702D02*
X0053280Y0018308D01*
X0053478Y0018506D02*
X0080802Y0018506D01*
X0080480Y0019720D02*
X0080480Y0016702D01*
X0080802Y0016906D02*
X0044933Y0016906D01*
X0045280Y0016702D02*
X0045280Y0018239D01*
X0043680Y0018239D02*
X0043680Y0017186D01*
X0042894Y0016906D02*
X0029382Y0016906D01*
X0029280Y0017007D02*
X0029280Y0018239D01*
X0027680Y0018239D02*
X0027680Y0017186D01*
X0027343Y0016906D02*
X0013437Y0016906D01*
X0013280Y0017062D02*
X0013280Y0030474D01*
X0011680Y0030350D02*
X0011680Y0017186D01*
X0011398Y0016906D02*
X0009780Y0016906D01*
X0009780Y0018506D02*
X0018601Y0018506D01*
X0018507Y0018600D02*
X0019552Y0017554D01*
X0021030Y0017554D01*
X0021715Y0018239D01*
X0034616Y0018239D01*
X0035300Y0017554D01*
X0036778Y0017554D01*
X0037463Y0018239D01*
X0050364Y0018239D01*
X0051048Y0017554D01*
X0052526Y0017554D01*
X0053572Y0018600D01*
X0053572Y0020078D01*
X0052526Y0021123D01*
X0051048Y0021123D01*
X0050364Y0020439D01*
X0037463Y0020439D01*
X0036778Y0021123D01*
X0035300Y0021123D01*
X0034616Y0020439D01*
X0021715Y0020439D01*
X0021030Y0021123D01*
X0019552Y0021123D01*
X0018507Y0020078D01*
X0018507Y0018600D01*
X0018535Y0020106D02*
X0009780Y0020106D01*
X0009780Y0024906D02*
X0074924Y0024906D01*
X0075680Y0025257D02*
X0075680Y0026088D01*
X0075262Y0026506D02*
X0009780Y0026506D01*
X0009780Y0028106D02*
X0074109Y0028106D01*
X0074109Y0029706D02*
X0009780Y0029706D01*
X0009780Y0031306D02*
X0010722Y0031306D01*
X0010666Y0032906D02*
X0009818Y0032906D01*
X0010080Y0033644D02*
X0010080Y0011726D01*
X0009923Y0012106D02*
X0072855Y0012106D01*
X0073239Y0012106D02*
X0088997Y0012106D01*
X0088997Y0012247D02*
X0088997Y0011863D01*
X0087305Y0011863D01*
X0087305Y0010205D01*
X0074931Y0010205D01*
X0074931Y0011863D01*
X0073239Y0011863D01*
X0073239Y0012247D01*
X0074931Y0012247D01*
X0074931Y0014102D01*
X0087305Y0014102D01*
X0087305Y0012247D01*
X0088997Y0012247D01*
X0089381Y0012106D02*
X0152707Y0012106D01*
X0152480Y0011559D02*
X0152480Y0033811D01*
X0151892Y0034506D02*
X0010738Y0034506D01*
X0011680Y0035022D02*
X0011680Y0033918D01*
X0013280Y0033794D02*
X0013280Y0035165D01*
X0014880Y0035165D02*
X0014880Y0033434D01*
X0016480Y0033434D02*
X0016480Y0035165D01*
X0018080Y0035165D02*
X0018080Y0033434D01*
X0019680Y0033434D02*
X0019680Y0035165D01*
X0021280Y0035165D02*
X0021280Y0033434D01*
X0022880Y0033434D02*
X0022880Y0035165D01*
X0024480Y0035165D02*
X0024480Y0033434D01*
X0026080Y0033434D02*
X0026080Y0035165D01*
X0027680Y0035165D02*
X0027680Y0033434D01*
X0029280Y0033434D02*
X0029280Y0035165D01*
X0030880Y0035165D02*
X0030880Y0033434D01*
X0032480Y0033434D02*
X0032480Y0035165D01*
X0034080Y0035165D02*
X0034080Y0033434D01*
X0035680Y0033434D02*
X0035680Y0035165D01*
X0037280Y0035165D02*
X0037280Y0033434D01*
X0038880Y0033434D02*
X0038880Y0035165D01*
X0040480Y0035165D02*
X0040480Y0033434D01*
X0042080Y0033434D02*
X0042080Y0035165D01*
X0043680Y0035165D02*
X0043680Y0033434D01*
X0045280Y0033434D02*
X0045280Y0035165D01*
X0046880Y0035165D02*
X0046880Y0033434D01*
X0048480Y0033434D02*
X0048480Y0035165D01*
X0050080Y0035165D02*
X0050080Y0033434D01*
X0051680Y0033434D02*
X0051680Y0035165D01*
X0053280Y0035165D02*
X0053280Y0033434D01*
X0054880Y0033434D02*
X0054880Y0035165D01*
X0056480Y0035165D02*
X0056480Y0033434D01*
X0058080Y0033434D02*
X0058080Y0035165D01*
X0059680Y0035165D02*
X0059680Y0033434D01*
X0061280Y0033434D02*
X0061280Y0035165D01*
X0062880Y0035165D02*
X0062880Y0033434D01*
X0064480Y0033434D02*
X0064480Y0035165D01*
X0066080Y0035165D02*
X0066080Y0033434D01*
X0067680Y0033434D02*
X0067680Y0035165D01*
X0069280Y0035165D02*
X0069280Y0033434D01*
X0070880Y0033434D02*
X0070880Y0035165D01*
X0072480Y0035165D02*
X0072480Y0033434D01*
X0074080Y0033434D02*
X0074080Y0035165D01*
X0075680Y0035165D02*
X0075680Y0033434D01*
X0077280Y0033434D02*
X0077280Y0035165D01*
X0078880Y0035165D02*
X0078880Y0033434D01*
X0080480Y0033434D02*
X0080480Y0035165D01*
X0082080Y0035165D02*
X0082080Y0033434D01*
X0083680Y0033434D02*
X0083680Y0035165D01*
X0085280Y0035165D02*
X0085280Y0033157D01*
X0086216Y0032906D02*
X0152812Y0032906D01*
X0152850Y0031306D02*
X0087233Y0031306D01*
X0086880Y0032241D02*
X0086880Y0035165D01*
X0088480Y0035165D02*
X0088480Y0029794D01*
X0086880Y0029794D02*
X0086880Y0030058D01*
X0086880Y0026994D02*
X0086880Y0025257D01*
X0087312Y0024906D02*
X0152850Y0024906D01*
X0152850Y0026506D02*
X0081534Y0026506D01*
X0082080Y0026994D02*
X0082080Y0025257D01*
X0083680Y0025357D02*
X0083680Y0026994D01*
X0085280Y0026994D02*
X0085280Y0025257D01*
X0084071Y0024906D02*
X0084071Y0024906D01*
X0084071Y0023306D02*
X0084071Y0023306D01*
X0084071Y0021706D02*
X0084071Y0021706D01*
X0084071Y0020106D02*
X0084071Y0020106D01*
X0083680Y0019620D02*
X0083680Y0016702D01*
X0083402Y0016906D02*
X0109626Y0016906D01*
X0109280Y0016702D02*
X0109280Y0018239D01*
X0107680Y0018239D02*
X0107680Y0016702D01*
X0106080Y0016702D02*
X0106080Y0018239D01*
X0104480Y0018239D02*
X0104480Y0016702D01*
X0102880Y0016702D02*
X0102880Y0018239D01*
X0101280Y0018239D02*
X0101280Y0016702D01*
X0099680Y0016702D02*
X0099680Y0018239D01*
X0099096Y0018506D02*
X0083402Y0018506D01*
X0085280Y0019720D02*
X0085280Y0016702D01*
X0086880Y0016702D02*
X0086880Y0019720D01*
X0087347Y0020106D02*
X0097496Y0020106D01*
X0098080Y0019522D02*
X0098080Y0016702D01*
X0096480Y0016702D02*
X0096480Y0021122D01*
X0096472Y0022685D02*
X0092142Y0022685D01*
X0086236Y0022685D01*
X0086039Y0022488D01*
X0088480Y0021585D02*
X0088480Y0016702D01*
X0090080Y0016702D02*
X0090080Y0021585D01*
X0091680Y0020901D02*
X0091680Y0016702D01*
X0093280Y0016702D02*
X0093280Y0021300D01*
X0094880Y0021585D02*
X0094880Y0016702D01*
X0094880Y0014102D02*
X0094880Y0010205D01*
X0093280Y0010205D02*
X0093280Y0014102D01*
X0091680Y0014102D02*
X0091680Y0010205D01*
X0091073Y0010506D02*
X0151329Y0010506D01*
X0150880Y0010320D02*
X0150880Y0017554D01*
X0151903Y0018506D02*
X0152850Y0018506D01*
X0152850Y0020106D02*
X0151969Y0020106D01*
X0150880Y0021123D02*
X0150880Y0026735D01*
X0149280Y0026609D02*
X0149280Y0020930D01*
X0147680Y0020439D02*
X0147680Y0026994D01*
X0146080Y0026994D02*
X0146080Y0020439D01*
X0144480Y0020439D02*
X0144480Y0026994D01*
X0142880Y0026994D02*
X0142880Y0020439D01*
X0141280Y0020439D02*
X0141280Y0026994D01*
X0139680Y0026994D02*
X0139680Y0020439D01*
X0138080Y0020439D02*
X0138080Y0026994D01*
X0136480Y0026994D02*
X0136480Y0020439D01*
X0134880Y0021123D02*
X0134880Y0026994D01*
X0133280Y0026994D02*
X0133280Y0020874D01*
X0131680Y0020439D02*
X0131680Y0026994D01*
X0130080Y0026994D02*
X0130080Y0020439D01*
X0128480Y0020439D02*
X0128480Y0026994D01*
X0126880Y0026994D02*
X0126880Y0020439D01*
X0125280Y0020439D02*
X0125280Y0026994D01*
X0123680Y0026994D02*
X0123680Y0020439D01*
X0122080Y0020439D02*
X0122080Y0026994D01*
X0120480Y0026994D02*
X0120480Y0020439D01*
X0118880Y0021123D02*
X0118880Y0026994D01*
X0117280Y0026994D02*
X0117280Y0020439D01*
X0115680Y0020439D02*
X0115680Y0026994D01*
X0114080Y0026994D02*
X0114080Y0020439D01*
X0112480Y0020439D02*
X0112480Y0026994D01*
X0110880Y0026994D02*
X0110880Y0020439D01*
X0109280Y0020439D02*
X0109280Y0026994D01*
X0107680Y0026994D02*
X0107680Y0020439D01*
X0106080Y0020439D02*
X0106080Y0026994D01*
X0104480Y0026994D02*
X0104480Y0020439D01*
X0102880Y0020439D02*
X0102880Y0026994D01*
X0101280Y0026994D02*
X0101280Y0020439D01*
X0099680Y0021033D02*
X0099680Y0026994D01*
X0098080Y0026994D02*
X0098080Y0022633D01*
X0097408Y0023306D02*
X0152850Y0023306D01*
X0152850Y0021706D02*
X0099008Y0021706D01*
X0099819Y0019339D02*
X0096472Y0022685D01*
X0096480Y0023785D02*
X0096480Y0026994D01*
X0094880Y0026994D02*
X0094880Y0023785D01*
X0093280Y0024070D02*
X0093280Y0026994D01*
X0091680Y0026994D02*
X0091680Y0024469D01*
X0090080Y0023785D02*
X0090080Y0026994D01*
X0088480Y0026994D02*
X0088480Y0023785D01*
X0090080Y0029794D02*
X0090080Y0035165D01*
X0091680Y0035165D02*
X0091680Y0029794D01*
X0093280Y0029794D02*
X0093280Y0035165D01*
X0094880Y0035165D02*
X0094880Y0029794D01*
X0096480Y0029794D02*
X0096480Y0035165D01*
X0098080Y0035165D02*
X0098080Y0029794D01*
X0099680Y0029794D02*
X0099680Y0035165D01*
X0101280Y0035165D02*
X0101280Y0029794D01*
X0102880Y0029794D02*
X0102880Y0035165D01*
X0104480Y0035165D02*
X0104480Y0029794D01*
X0106080Y0029794D02*
X0106080Y0035165D01*
X0107680Y0035165D02*
X0107680Y0029794D01*
X0109280Y0029794D02*
X0109280Y0035165D01*
X0110880Y0035165D02*
X0110880Y0029794D01*
X0112480Y0029794D02*
X0112480Y0035165D01*
X0114080Y0035165D02*
X0114080Y0029794D01*
X0115680Y0029794D02*
X0115680Y0035165D01*
X0117280Y0035165D02*
X0117280Y0029794D01*
X0118880Y0029794D02*
X0118880Y0035165D01*
X0120480Y0035165D02*
X0120480Y0029794D01*
X0122080Y0029794D02*
X0122080Y0035165D01*
X0123680Y0035165D02*
X0123680Y0029794D01*
X0125280Y0029794D02*
X0125280Y0035165D01*
X0126880Y0035165D02*
X0126880Y0029794D01*
X0128480Y0029794D02*
X0128480Y0035165D01*
X0130080Y0035165D02*
X0130080Y0029794D01*
X0131680Y0029794D02*
X0131680Y0035165D01*
X0133280Y0035165D02*
X0133280Y0029794D01*
X0134880Y0029794D02*
X0134880Y0035165D01*
X0136480Y0035165D02*
X0136480Y0029794D01*
X0138080Y0029794D02*
X0138080Y0035165D01*
X0139680Y0035165D02*
X0139680Y0029794D01*
X0141280Y0029794D02*
X0141280Y0035165D01*
X0142880Y0035165D02*
X0142880Y0029794D01*
X0144480Y0029794D02*
X0144480Y0035165D01*
X0146080Y0035165D02*
X0146080Y0029794D01*
X0147680Y0029794D02*
X0147680Y0035165D01*
X0149280Y0035165D02*
X0149280Y0030178D01*
X0150880Y0030052D02*
X0150880Y0035050D01*
X0151227Y0029706D02*
X0152850Y0029706D01*
X0152850Y0028106D02*
X0151800Y0028106D01*
X0150213Y0019339D02*
X0134268Y0019339D01*
X0118913Y0019339D01*
X0099819Y0019339D01*
X0099680Y0014102D02*
X0099680Y0010205D01*
X0098080Y0010205D02*
X0098080Y0014102D01*
X0096480Y0014102D02*
X0096480Y0010205D01*
X0091073Y0013706D02*
X0109818Y0013706D01*
X0109280Y0014102D02*
X0109280Y0010205D01*
X0107680Y0010205D02*
X0107680Y0014102D01*
X0106080Y0014102D02*
X0106080Y0010205D01*
X0104480Y0010205D02*
X0104480Y0014102D01*
X0102880Y0014102D02*
X0102880Y0010205D01*
X0101280Y0010205D02*
X0101280Y0014102D01*
X0110880Y0013617D02*
X0110880Y0010205D01*
X0112480Y0010205D02*
X0112480Y0014102D01*
X0111473Y0013706D02*
X0125960Y0013706D01*
X0125280Y0014102D02*
X0125280Y0010205D01*
X0123680Y0010205D02*
X0123680Y0014102D01*
X0122080Y0014102D02*
X0122080Y0010205D01*
X0120480Y0010205D02*
X0120480Y0014102D01*
X0118880Y0014102D02*
X0118880Y0010205D01*
X0117280Y0010205D02*
X0117280Y0014102D01*
X0115680Y0014102D02*
X0115680Y0010205D01*
X0114080Y0010205D02*
X0114080Y0014102D01*
X0114080Y0016702D02*
X0114080Y0018239D01*
X0112480Y0018239D02*
X0112480Y0016702D01*
X0111665Y0016906D02*
X0125768Y0016906D01*
X0125280Y0016702D02*
X0125280Y0018239D01*
X0123680Y0018239D02*
X0123680Y0016702D01*
X0122080Y0016702D02*
X0122080Y0018239D01*
X0120480Y0018239D02*
X0120480Y0016702D01*
X0118880Y0016702D02*
X0118880Y0017554D01*
X0117280Y0018239D02*
X0117280Y0016702D01*
X0115680Y0016702D02*
X0115680Y0018239D01*
X0110880Y0018239D02*
X0110880Y0017186D01*
X0126880Y0017186D02*
X0126880Y0018239D01*
X0128480Y0018239D02*
X0128480Y0016702D01*
X0127807Y0016906D02*
X0141319Y0016906D01*
X0141280Y0016867D02*
X0141280Y0018239D01*
X0139680Y0018239D02*
X0139680Y0016702D01*
X0138080Y0016702D02*
X0138080Y0018239D01*
X0136480Y0018239D02*
X0136480Y0016702D01*
X0134880Y0016702D02*
X0134880Y0017554D01*
X0133280Y0017803D02*
X0133280Y0016702D01*
X0131680Y0016702D02*
X0131680Y0018239D01*
X0130080Y0018239D02*
X0130080Y0016702D01*
X0130080Y0014102D02*
X0130080Y0010205D01*
X0128480Y0010205D02*
X0128480Y0014102D01*
X0127615Y0013706D02*
X0141511Y0013706D01*
X0141280Y0013937D02*
X0141280Y0010205D01*
X0139680Y0010205D02*
X0139680Y0014102D01*
X0138080Y0014102D02*
X0138080Y0010205D01*
X0136480Y0010205D02*
X0136480Y0014102D01*
X0134880Y0014102D02*
X0134880Y0010205D01*
X0133280Y0010205D02*
X0133280Y0014102D01*
X0131680Y0014102D02*
X0131680Y0010205D01*
X0126880Y0010205D02*
X0126880Y0013617D01*
X0142880Y0013617D02*
X0142880Y0010205D01*
X0144480Y0010205D02*
X0144480Y0018239D01*
X0142880Y0018239D02*
X0142880Y0017186D01*
X0143358Y0016906D02*
X0152850Y0016906D01*
X0152850Y0015306D02*
X0144123Y0015306D01*
X0143166Y0013706D02*
X0152850Y0013706D01*
X0149280Y0010205D02*
X0149280Y0017748D01*
X0147680Y0018239D02*
X0147680Y0010205D01*
X0146080Y0010205D02*
X0146080Y0018239D01*
X0090080Y0012247D02*
X0090080Y0011863D01*
X0088480Y0011863D02*
X0088480Y0012247D01*
X0087305Y0013706D02*
X0074931Y0013706D01*
X0075680Y0014102D02*
X0075680Y0010205D01*
X0074931Y0010506D02*
X0087305Y0010506D01*
X0086880Y0010205D02*
X0086880Y0014102D01*
X0085280Y0014102D02*
X0085280Y0010205D01*
X0083680Y0010205D02*
X0083680Y0014102D01*
X0082080Y0014102D02*
X0082080Y0010205D01*
X0080480Y0010205D02*
X0080480Y0014102D01*
X0078880Y0014102D02*
X0078880Y0010205D01*
X0077280Y0010205D02*
X0077280Y0014102D01*
X0077280Y0016702D02*
X0077280Y0019720D01*
X0075680Y0019720D02*
X0075680Y0016702D01*
X0074080Y0016702D02*
X0074080Y0021388D01*
X0074889Y0020106D02*
X0053544Y0020106D01*
X0053280Y0020369D02*
X0053280Y0030834D01*
X0051680Y0030834D02*
X0051680Y0021123D01*
X0050080Y0020439D02*
X0050080Y0030834D01*
X0048480Y0030834D02*
X0048480Y0020439D01*
X0046880Y0020439D02*
X0046880Y0030834D01*
X0045280Y0030834D02*
X0045280Y0020439D01*
X0043680Y0020439D02*
X0043680Y0030834D01*
X0042080Y0030834D02*
X0042080Y0020439D01*
X0040480Y0020439D02*
X0040480Y0030834D01*
X0038880Y0030834D02*
X0038880Y0020439D01*
X0037280Y0020621D02*
X0037280Y0030834D01*
X0035680Y0030834D02*
X0035680Y0021123D01*
X0034080Y0020439D02*
X0034080Y0030834D01*
X0032480Y0030834D02*
X0032480Y0020439D01*
X0030880Y0020439D02*
X0030880Y0030834D01*
X0029280Y0030834D02*
X0029280Y0020439D01*
X0027680Y0020439D02*
X0027680Y0030834D01*
X0026080Y0030834D02*
X0026080Y0020439D01*
X0024480Y0020439D02*
X0024480Y0030834D01*
X0022880Y0030834D02*
X0022880Y0020439D01*
X0021280Y0020873D02*
X0021280Y0030834D01*
X0019680Y0030834D02*
X0019680Y0021123D01*
X0020291Y0019339D02*
X0036039Y0019339D01*
X0051787Y0019339D01*
X0051680Y0017554D02*
X0051680Y0016702D01*
X0050080Y0016702D02*
X0050080Y0018239D01*
X0048480Y0018239D02*
X0048480Y0016702D01*
X0046880Y0016702D02*
X0046880Y0018239D01*
X0042080Y0018239D02*
X0042080Y0016702D01*
X0040480Y0016702D02*
X0040480Y0018239D01*
X0038880Y0018239D02*
X0038880Y0016702D01*
X0037280Y0016702D02*
X0037280Y0018056D01*
X0035680Y0017554D02*
X0035680Y0016702D01*
X0034080Y0016702D02*
X0034080Y0018239D01*
X0032480Y0018239D02*
X0032480Y0016702D01*
X0030880Y0016702D02*
X0030880Y0018239D01*
X0026080Y0018239D02*
X0026080Y0016702D01*
X0024480Y0016702D02*
X0024480Y0018239D01*
X0022880Y0018239D02*
X0022880Y0016702D01*
X0021280Y0016702D02*
X0021280Y0017804D01*
X0019680Y0017554D02*
X0019680Y0016702D01*
X0018080Y0016702D02*
X0018080Y0030834D01*
X0016480Y0030834D02*
X0016480Y0016702D01*
X0014880Y0016702D02*
X0014880Y0030834D01*
X0010633Y0015306D02*
X0009780Y0015306D01*
X0009780Y0013706D02*
X0011590Y0013706D01*
X0011680Y0013617D02*
X0011680Y0010348D01*
X0070880Y0016702D02*
X0070880Y0020704D01*
X0072480Y0021388D02*
X0072480Y0016702D01*
X0070882Y0022488D02*
X0076197Y0022488D01*
X0074080Y0023588D02*
X0074080Y0030834D01*
X0072480Y0030834D02*
X0072480Y0023588D01*
X0070880Y0024272D02*
X0070880Y0030834D01*
X0078880Y0019720D02*
X0078880Y0016702D01*
X0074080Y0012247D02*
X0074080Y0011863D01*
X0072480Y0011863D02*
X0072480Y0012247D01*
M02*
