%
M48
M72
T01C0.01181
%
T01
X11827Y11661
X12417Y15402
X20291Y19339
X28362Y15402
X36039Y19339
X43913Y15402
X51787Y19339
X55921Y19732
X56512Y13236
X69701Y12055
X76394Y12055
X77181Y18157
X70882Y22488
X77772Y29378
X85449Y31150
X93126Y32921
X93126Y26031
X92142Y22685
X85252Y18354
X86039Y12055
X92535Y12055
X106709Y13236
X110646Y15402
X118913Y19339
X126787Y15402
X134268Y19339
X142339Y15402
X141748Y11858
X150213Y19339
X150016Y28394
X146276Y34299
X130528Y34299
X114780Y34299
X106512Y26031
X69504Y34299
X55921Y27016
X47850Y34299
X32102Y34299
X16354Y34299
X12417Y32134
M30
