G75*
%MOIN*%
%OFA0B0*%
%FSLAX25Y25*%
%IPPOS*%
%LPD*%
%AMOC8*
5,1,8,0,0,1.08239X$1,22.5*
%
%ADD10R,0.04724X0.06299*%
%ADD11R,0.03937X0.04331*%
%ADD12C,0.01200*%
%ADD13OC8,0.01969*%
%ADD14C,0.00600*%
%ADD15C,0.01000*%
D10*
X0012417Y0016780D03*
X0020291Y0016780D03*
X0028165Y0016780D03*
X0036039Y0016780D03*
X0043913Y0016780D03*
X0051787Y0016780D03*
X0051787Y0030559D03*
X0043913Y0030559D03*
X0036039Y0030559D03*
X0028165Y0030559D03*
X0020291Y0030559D03*
X0012417Y0030559D03*
X0110843Y0030559D03*
X0118717Y0030559D03*
X0126591Y0030559D03*
X0134465Y0030559D03*
X0142339Y0030559D03*
X0150213Y0030559D03*
X0150213Y0016780D03*
X0142339Y0016780D03*
X0134465Y0016780D03*
X0126591Y0016780D03*
X0118717Y0016780D03*
X0110843Y0016780D03*
D11*
X0096472Y0017567D03*
X0089780Y0017567D03*
X0089780Y0029378D03*
X0096472Y0029378D03*
X0072850Y0029378D03*
X0066157Y0029378D03*
X0066157Y0017567D03*
X0072850Y0017567D03*
D12*
X0072850Y0029378D02*
X0077772Y0029378D01*
X0066157Y0029378D02*
X0052469Y0029378D01*
X0051787Y0030559D01*
X0043913Y0030559D02*
X0036039Y0030559D01*
X0028165Y0030559D02*
X0020291Y0030559D01*
X0110161Y0029378D02*
X0110843Y0030559D01*
X0150016Y0028394D02*
X0150213Y0028591D01*
X0150213Y0030559D01*
D13*
X0150016Y0028394D03*
X0146276Y0034299D03*
X0130528Y0034299D03*
X0114780Y0034299D03*
X0106512Y0026031D03*
X0110646Y0015402D03*
X0106709Y0013236D03*
X0118913Y0019339D03*
X0126787Y0015402D03*
X0134268Y0019339D03*
X0142339Y0015402D03*
X0141748Y0011858D03*
X0150213Y0019339D03*
X0093126Y0026031D03*
X0092142Y0022685D03*
X0085252Y0018354D03*
X0086039Y0012055D03*
X0092535Y0012055D03*
X0077181Y0018157D03*
X0076394Y0012055D03*
X0069701Y0012055D03*
X0070882Y0022488D03*
X0077772Y0029378D03*
X0085449Y0031150D03*
X0093126Y0032921D03*
X0069504Y0034299D03*
X0055921Y0027016D03*
X0055921Y0019732D03*
X0051787Y0019339D03*
X0056512Y0013236D03*
X0043913Y0015402D03*
X0036039Y0019339D03*
X0028362Y0015402D03*
X0020291Y0019339D03*
X0012417Y0015402D03*
X0011827Y0011661D03*
X0012417Y0032134D03*
X0016354Y0034299D03*
X0032102Y0034299D03*
X0047850Y0034299D03*
D14*
X0010952Y0010650D02*
X0010225Y0011377D01*
X0009831Y0012328D01*
X0009782Y0012830D01*
X0015111Y0012830D01*
X0015580Y0013299D01*
X0015580Y0015245D01*
X0017129Y0015245D01*
X0017129Y0013299D01*
X0017598Y0012830D01*
X0022985Y0012830D01*
X0023454Y0013299D01*
X0023454Y0020167D01*
X0023472Y0020167D01*
X0023794Y0020489D01*
X0023794Y0026850D01*
X0023472Y0027172D01*
X0023454Y0027172D01*
X0023454Y0029159D01*
X0025003Y0029159D01*
X0025003Y0027172D01*
X0024985Y0027172D01*
X0024663Y0026850D01*
X0024663Y0020489D01*
X0024985Y0020167D01*
X0025003Y0020167D01*
X0025003Y0013299D01*
X0025472Y0012830D01*
X0030859Y0012830D01*
X0031328Y0013299D01*
X0031328Y0015245D01*
X0032877Y0015245D01*
X0032877Y0013299D01*
X0033346Y0012830D01*
X0038733Y0012830D01*
X0039202Y0013299D01*
X0039202Y0020167D01*
X0039220Y0020167D01*
X0039542Y0020489D01*
X0039542Y0026850D01*
X0039220Y0027172D01*
X0039202Y0027172D01*
X0039202Y0029159D01*
X0040751Y0029159D01*
X0040751Y0027172D01*
X0040733Y0027172D01*
X0040411Y0026850D01*
X0040411Y0020489D01*
X0040733Y0020167D01*
X0040751Y0020167D01*
X0040751Y0013299D01*
X0041220Y0012830D01*
X0046607Y0012830D01*
X0047076Y0013299D01*
X0047076Y0015245D01*
X0048625Y0015245D01*
X0048625Y0013299D01*
X0049094Y0012830D01*
X0054481Y0012830D01*
X0054950Y0013299D01*
X0054950Y0016467D01*
X0063389Y0016467D01*
X0063389Y0015070D01*
X0063858Y0014602D01*
X0068457Y0014602D01*
X0068926Y0015070D01*
X0068926Y0018977D01*
X0070068Y0020118D01*
X0069982Y0019911D01*
X0069982Y0017867D01*
X0072550Y0017867D01*
X0072550Y0017267D01*
X0069982Y0017267D01*
X0069982Y0015223D01*
X0070119Y0014892D01*
X0070372Y0014639D01*
X0070703Y0014502D01*
X0072550Y0014502D01*
X0072550Y0017267D01*
X0073150Y0017267D01*
X0073150Y0014502D01*
X0074998Y0014502D01*
X0075329Y0014639D01*
X0075582Y0014892D01*
X0075719Y0015223D01*
X0075719Y0017267D01*
X0073150Y0017267D01*
X0073150Y0017867D01*
X0072550Y0017867D01*
X0072550Y0020632D01*
X0070703Y0020632D01*
X0070496Y0020547D01*
X0070653Y0020704D01*
X0071621Y0020704D01*
X0072666Y0021749D01*
X0072666Y0023227D01*
X0071621Y0024272D01*
X0070143Y0024272D01*
X0069098Y0023227D01*
X0069098Y0022260D01*
X0067370Y0020532D01*
X0063858Y0020532D01*
X0063389Y0020064D01*
X0063389Y0018667D01*
X0054950Y0018667D01*
X0054950Y0020167D01*
X0054968Y0020167D01*
X0055290Y0020489D01*
X0055290Y0026850D01*
X0054968Y0027172D01*
X0054950Y0027172D01*
X0054950Y0027978D01*
X0063389Y0027978D01*
X0063389Y0026881D01*
X0063858Y0026413D01*
X0068457Y0026413D01*
X0068926Y0026881D01*
X0068926Y0031875D01*
X0068457Y0032343D01*
X0063858Y0032343D01*
X0063389Y0031875D01*
X0063389Y0030778D01*
X0054950Y0030778D01*
X0054950Y0034040D01*
X0054481Y0034509D01*
X0049094Y0034509D01*
X0048625Y0034040D01*
X0048625Y0032093D01*
X0047076Y0032093D01*
X0047076Y0034040D01*
X0046607Y0034509D01*
X0041220Y0034509D01*
X0040751Y0034040D01*
X0040751Y0031959D01*
X0039202Y0031959D01*
X0039202Y0034040D01*
X0038733Y0034509D01*
X0033346Y0034509D01*
X0032877Y0034040D01*
X0032877Y0032093D01*
X0031328Y0032093D01*
X0031328Y0034040D01*
X0030859Y0034509D01*
X0025472Y0034509D01*
X0025003Y0034040D01*
X0025003Y0031959D01*
X0023454Y0031959D01*
X0023454Y0034040D01*
X0022985Y0034509D01*
X0017598Y0034509D01*
X0017129Y0034040D01*
X0017129Y0032093D01*
X0015580Y0032093D01*
X0015580Y0034040D01*
X0015111Y0034509D01*
X0010741Y0034509D01*
X0010952Y0034720D01*
X0011903Y0035114D01*
X0012417Y0035165D01*
X0150213Y0035165D01*
X0150727Y0035114D01*
X0151678Y0034720D01*
X0151889Y0034509D01*
X0147519Y0034509D01*
X0147050Y0034040D01*
X0147050Y0032093D01*
X0145501Y0032093D01*
X0145501Y0034040D01*
X0145032Y0034509D01*
X0139645Y0034509D01*
X0139176Y0034040D01*
X0139176Y0031859D01*
X0137627Y0031859D01*
X0137627Y0034040D01*
X0137158Y0034509D01*
X0131771Y0034509D01*
X0131302Y0034040D01*
X0131302Y0032093D01*
X0129753Y0032093D01*
X0129753Y0034040D01*
X0129284Y0034509D01*
X0123897Y0034509D01*
X0123428Y0034040D01*
X0123428Y0031859D01*
X0121879Y0031859D01*
X0121879Y0034040D01*
X0121410Y0034509D01*
X0116023Y0034509D01*
X0115554Y0034040D01*
X0115554Y0032093D01*
X0114005Y0032093D01*
X0114005Y0034040D01*
X0113536Y0034509D01*
X0108149Y0034509D01*
X0107680Y0034040D01*
X0107680Y0035165D01*
X0108146Y0034506D02*
X0054484Y0034506D01*
X0054880Y0034109D02*
X0054880Y0035165D01*
X0053280Y0035165D02*
X0053280Y0034509D01*
X0051680Y0034509D02*
X0051680Y0035165D01*
X0050080Y0035165D02*
X0050080Y0034509D01*
X0049091Y0034506D02*
X0046610Y0034506D01*
X0046880Y0034235D02*
X0046880Y0035165D01*
X0045280Y0035165D02*
X0045280Y0034509D01*
X0043680Y0034509D02*
X0043680Y0035165D01*
X0042080Y0035165D02*
X0042080Y0034509D01*
X0041217Y0034506D02*
X0038736Y0034506D01*
X0038880Y0034361D02*
X0038880Y0035165D01*
X0037280Y0035165D02*
X0037280Y0034509D01*
X0035680Y0034509D02*
X0035680Y0035165D01*
X0034080Y0035165D02*
X0034080Y0034509D01*
X0033343Y0034506D02*
X0030862Y0034506D01*
X0030880Y0034487D02*
X0030880Y0035165D01*
X0029280Y0035165D02*
X0029280Y0034509D01*
X0027680Y0034509D02*
X0027680Y0035165D01*
X0026080Y0035165D02*
X0026080Y0034509D01*
X0025469Y0034506D02*
X0022988Y0034506D01*
X0022880Y0034509D02*
X0022880Y0035165D01*
X0021280Y0035165D02*
X0021280Y0034509D01*
X0019680Y0034509D02*
X0019680Y0035165D01*
X0018080Y0035165D02*
X0018080Y0034509D01*
X0017595Y0034506D02*
X0015114Y0034506D01*
X0014880Y0034509D02*
X0014880Y0035165D01*
X0013280Y0035165D02*
X0013280Y0034509D01*
X0011680Y0034509D02*
X0011680Y0035022D01*
X0012417Y0032134D02*
X0012417Y0030559D01*
X0015580Y0032906D02*
X0017129Y0032906D01*
X0016480Y0032093D02*
X0016480Y0035165D01*
X0023454Y0032906D02*
X0025003Y0032906D01*
X0024480Y0031959D02*
X0024480Y0035165D01*
X0031328Y0032906D02*
X0032877Y0032906D01*
X0032480Y0032093D02*
X0032480Y0035165D01*
X0039202Y0032906D02*
X0040751Y0032906D01*
X0040480Y0031959D02*
X0040480Y0035165D01*
X0047076Y0032906D02*
X0048625Y0032906D01*
X0048480Y0032093D02*
X0048480Y0035165D01*
X0054950Y0032906D02*
X0084681Y0032906D01*
X0084710Y0032934D02*
X0083665Y0031889D01*
X0083665Y0030411D01*
X0084710Y0029365D01*
X0085395Y0029365D01*
X0086682Y0028078D01*
X0087011Y0028078D01*
X0087011Y0026881D01*
X0087480Y0026413D01*
X0092079Y0026413D01*
X0092548Y0026881D01*
X0092548Y0031875D01*
X0092079Y0032343D01*
X0087480Y0032343D01*
X0087129Y0031993D01*
X0086188Y0032934D01*
X0084710Y0032934D01*
X0085280Y0032934D02*
X0085280Y0035165D01*
X0083680Y0035165D02*
X0083680Y0031904D01*
X0083665Y0031306D02*
X0075619Y0031306D01*
X0075619Y0030778D02*
X0075619Y0031875D01*
X0075150Y0032343D01*
X0070551Y0032343D01*
X0070082Y0031875D01*
X0070082Y0026881D01*
X0070551Y0026413D01*
X0075150Y0026413D01*
X0075619Y0026881D01*
X0075619Y0027978D01*
X0076648Y0027978D01*
X0077033Y0027594D01*
X0078511Y0027594D01*
X0079556Y0028639D01*
X0079556Y0030117D01*
X0078511Y0031162D01*
X0077033Y0031162D01*
X0076648Y0030778D01*
X0075619Y0030778D01*
X0075680Y0030778D02*
X0075680Y0035165D01*
X0074080Y0035165D02*
X0074080Y0032343D01*
X0072480Y0032343D02*
X0072480Y0035165D01*
X0070880Y0035165D02*
X0070880Y0032343D01*
X0070082Y0031306D02*
X0068926Y0031306D01*
X0068926Y0029706D02*
X0070082Y0029706D01*
X0070082Y0028106D02*
X0068926Y0028106D01*
X0068550Y0026506D02*
X0070458Y0026506D01*
X0070880Y0026413D02*
X0070880Y0024272D01*
X0070882Y0022488D02*
X0066157Y0017764D01*
X0066157Y0017567D01*
X0053559Y0017567D01*
X0051787Y0019339D01*
X0051787Y0016780D01*
X0054950Y0015306D02*
X0063389Y0015306D01*
X0062880Y0016467D02*
X0062880Y0010205D01*
X0061280Y0010205D02*
X0061280Y0016467D01*
X0059680Y0016467D02*
X0059680Y0010205D01*
X0058080Y0010205D02*
X0058080Y0016467D01*
X0056480Y0016467D02*
X0056480Y0010205D01*
X0054880Y0010205D02*
X0054880Y0013229D01*
X0054950Y0013706D02*
X0107680Y0013706D01*
X0107680Y0013299D02*
X0107680Y0010205D01*
X0106080Y0010205D02*
X0106080Y0028078D01*
X0104480Y0028078D02*
X0104480Y0010205D01*
X0102880Y0010205D02*
X0102880Y0028078D01*
X0101280Y0028078D02*
X0101280Y0010205D01*
X0099680Y0010205D02*
X0099680Y0028078D01*
X0099241Y0028078D02*
X0107680Y0028078D01*
X0107680Y0027172D01*
X0107662Y0027172D01*
X0107340Y0026850D01*
X0107340Y0020489D01*
X0107662Y0020167D01*
X0107680Y0020167D01*
X0107680Y0013299D01*
X0108149Y0012830D01*
X0113536Y0012830D01*
X0114005Y0013299D01*
X0114005Y0015245D01*
X0115554Y0015245D01*
X0115554Y0013299D01*
X0116023Y0012830D01*
X0121410Y0012830D01*
X0121879Y0013299D01*
X0121879Y0020167D01*
X0121897Y0020167D01*
X0122219Y0020489D01*
X0122219Y0026850D01*
X0121897Y0027172D01*
X0121879Y0027172D01*
X0121879Y0029259D01*
X0123428Y0029259D01*
X0123428Y0027172D01*
X0123410Y0027172D01*
X0123088Y0026850D01*
X0123088Y0020489D01*
X0123410Y0020167D01*
X0123428Y0020167D01*
X0123428Y0013299D01*
X0123897Y0012830D01*
X0129284Y0012830D01*
X0129753Y0013299D01*
X0129753Y0015245D01*
X0131302Y0015245D01*
X0131302Y0013299D01*
X0131771Y0012830D01*
X0137158Y0012830D01*
X0137627Y0013299D01*
X0137627Y0020167D01*
X0137645Y0020167D01*
X0137967Y0020489D01*
X0137967Y0026850D01*
X0137645Y0027172D01*
X0137627Y0027172D01*
X0137627Y0029259D01*
X0139176Y0029259D01*
X0139176Y0027172D01*
X0139158Y0027172D01*
X0138836Y0026850D01*
X0138836Y0020489D01*
X0139158Y0020167D01*
X0139176Y0020167D01*
X0139176Y0013299D01*
X0139645Y0012830D01*
X0145032Y0012830D01*
X0145501Y0013299D01*
X0145501Y0015245D01*
X0147050Y0015245D01*
X0147050Y0013299D01*
X0147519Y0012830D01*
X0152848Y0012830D01*
X0152799Y0012328D01*
X0152405Y0011377D01*
X0151678Y0010650D01*
X0150727Y0010256D01*
X0150213Y0010205D01*
X0012417Y0010205D01*
X0011903Y0010256D01*
X0010952Y0010650D01*
X0011301Y0010506D02*
X0151329Y0010506D01*
X0150880Y0010320D02*
X0150880Y0012830D01*
X0149280Y0012830D02*
X0149280Y0010205D01*
X0147680Y0010205D02*
X0147680Y0012830D01*
X0147050Y0013706D02*
X0145501Y0013706D01*
X0144480Y0012830D02*
X0144480Y0010205D01*
X0142880Y0010205D02*
X0142880Y0012830D01*
X0141280Y0012830D02*
X0141280Y0010205D01*
X0139680Y0010205D02*
X0139680Y0012830D01*
X0139176Y0013706D02*
X0137627Y0013706D01*
X0136480Y0012830D02*
X0136480Y0010205D01*
X0134880Y0010205D02*
X0134880Y0012830D01*
X0133280Y0012830D02*
X0133280Y0010205D01*
X0131680Y0010205D02*
X0131680Y0012921D01*
X0131302Y0013706D02*
X0129753Y0013706D01*
X0128480Y0012830D02*
X0128480Y0010205D01*
X0126880Y0010205D02*
X0126880Y0012830D01*
X0125280Y0012830D02*
X0125280Y0010205D01*
X0123680Y0010205D02*
X0123680Y0013047D01*
X0123428Y0013706D02*
X0121879Y0013706D01*
X0121879Y0015306D02*
X0123428Y0015306D01*
X0123428Y0016906D02*
X0121879Y0016906D01*
X0121879Y0018506D02*
X0123428Y0018506D01*
X0123428Y0020106D02*
X0121879Y0020106D01*
X0122080Y0020350D02*
X0122080Y0010205D01*
X0120480Y0010205D02*
X0120480Y0012830D01*
X0118880Y0012830D02*
X0118880Y0010205D01*
X0117280Y0010205D02*
X0117280Y0012830D01*
X0115680Y0013173D02*
X0115680Y0010205D01*
X0114080Y0010205D02*
X0114080Y0015245D01*
X0114005Y0013706D02*
X0115554Y0013706D01*
X0112480Y0012830D02*
X0112480Y0010205D01*
X0110880Y0010205D02*
X0110880Y0012830D01*
X0109280Y0012830D02*
X0109280Y0010205D01*
X0107680Y0015306D02*
X0099241Y0015306D01*
X0099241Y0015070D02*
X0099241Y0020064D01*
X0098772Y0020532D01*
X0095063Y0020532D01*
X0093787Y0021808D01*
X0093926Y0021946D01*
X0093926Y0023424D01*
X0092881Y0024469D01*
X0091403Y0024469D01*
X0090357Y0023424D01*
X0090357Y0021946D01*
X0091403Y0020901D01*
X0091583Y0020901D01*
X0091686Y0020798D01*
X0091851Y0020632D01*
X0090079Y0020632D01*
X0090079Y0017867D01*
X0089480Y0017867D01*
X0089480Y0020632D01*
X0087632Y0020632D01*
X0087301Y0020495D01*
X0087048Y0020242D01*
X0086911Y0019911D01*
X0086911Y0017867D01*
X0089479Y0017867D01*
X0089479Y0017267D01*
X0086911Y0017267D01*
X0086911Y0015223D01*
X0087048Y0014892D01*
X0087301Y0014639D01*
X0087632Y0014502D01*
X0089480Y0014502D01*
X0089480Y0017267D01*
X0090079Y0017267D01*
X0090079Y0014502D01*
X0091927Y0014502D01*
X0092258Y0014639D01*
X0092511Y0014892D01*
X0092648Y0015223D01*
X0092648Y0017267D01*
X0090080Y0017267D01*
X0090080Y0017867D01*
X0092648Y0017867D01*
X0092648Y0019836D01*
X0093704Y0018780D01*
X0093704Y0015070D01*
X0094173Y0014602D01*
X0098772Y0014602D01*
X0099241Y0015070D01*
X0098080Y0014602D02*
X0098080Y0010205D01*
X0096480Y0010205D02*
X0096480Y0014602D01*
X0094880Y0014602D02*
X0094880Y0010205D01*
X0093280Y0010205D02*
X0093280Y0019203D01*
X0093704Y0018506D02*
X0092648Y0018506D01*
X0091680Y0017867D02*
X0091680Y0017267D01*
X0092648Y0016906D02*
X0093704Y0016906D01*
X0093704Y0015306D02*
X0092648Y0015306D01*
X0091680Y0014502D02*
X0091680Y0010205D01*
X0090080Y0010205D02*
X0090080Y0014502D01*
X0090079Y0015306D02*
X0089480Y0015306D01*
X0088480Y0014502D02*
X0088480Y0010205D01*
X0086880Y0010205D02*
X0086880Y0028078D01*
X0086654Y0028106D02*
X0079023Y0028106D01*
X0078880Y0027963D02*
X0078880Y0010205D01*
X0077280Y0010205D02*
X0077280Y0027594D01*
X0075680Y0027978D02*
X0075680Y0020004D01*
X0075719Y0019911D02*
X0075582Y0020242D01*
X0075329Y0020495D01*
X0074998Y0020632D01*
X0073150Y0020632D01*
X0073150Y0017867D01*
X0075719Y0017867D01*
X0075719Y0019911D01*
X0075638Y0020106D02*
X0086991Y0020106D01*
X0088480Y0020632D02*
X0088480Y0026413D01*
X0087387Y0026506D02*
X0075243Y0026506D01*
X0074080Y0026413D02*
X0074080Y0020632D01*
X0073150Y0020106D02*
X0072550Y0020106D01*
X0072480Y0020632D02*
X0072480Y0021563D01*
X0072623Y0021706D02*
X0090598Y0021706D01*
X0090080Y0020632D02*
X0090080Y0026413D01*
X0091680Y0026413D02*
X0091680Y0024469D01*
X0093280Y0024070D02*
X0093280Y0035165D01*
X0091680Y0035165D02*
X0091680Y0032343D01*
X0092548Y0031306D02*
X0093704Y0031306D01*
X0093704Y0031875D02*
X0093704Y0026881D01*
X0094173Y0026413D01*
X0098772Y0026413D01*
X0099241Y0026881D01*
X0099241Y0028078D01*
X0098865Y0026506D02*
X0107340Y0026506D01*
X0107340Y0024906D02*
X0055290Y0024906D01*
X0055290Y0026506D02*
X0063765Y0026506D01*
X0064480Y0026413D02*
X0064480Y0020532D01*
X0063431Y0020106D02*
X0054950Y0020106D01*
X0055290Y0021706D02*
X0068544Y0021706D01*
X0067680Y0020842D02*
X0067680Y0026413D01*
X0066080Y0026413D02*
X0066080Y0020532D01*
X0069280Y0019331D02*
X0069280Y0010205D01*
X0067680Y0010205D02*
X0067680Y0014602D01*
X0068926Y0015306D02*
X0069982Y0015306D01*
X0070880Y0014502D02*
X0070880Y0010205D01*
X0072480Y0010205D02*
X0072480Y0014502D01*
X0072550Y0015306D02*
X0073150Y0015306D01*
X0074080Y0014502D02*
X0074080Y0010205D01*
X0075680Y0010205D02*
X0075680Y0015129D01*
X0075719Y0015306D02*
X0086911Y0015306D01*
X0086911Y0016906D02*
X0075719Y0016906D01*
X0075680Y0017267D02*
X0075680Y0017867D01*
X0075719Y0018506D02*
X0086911Y0018506D01*
X0088480Y0017867D02*
X0088480Y0017267D01*
X0089480Y0016906D02*
X0090079Y0016906D01*
X0090080Y0017267D02*
X0090080Y0017867D01*
X0090079Y0018506D02*
X0089480Y0018506D01*
X0089480Y0020106D02*
X0090079Y0020106D01*
X0091680Y0020632D02*
X0091680Y0020803D01*
X0092142Y0021898D02*
X0092142Y0022685D01*
X0092142Y0021898D02*
X0096472Y0017567D01*
X0099241Y0016906D02*
X0107680Y0016906D01*
X0107680Y0018506D02*
X0099241Y0018506D01*
X0099199Y0020106D02*
X0107680Y0020106D01*
X0107340Y0021706D02*
X0093889Y0021706D01*
X0094880Y0020715D02*
X0094880Y0026413D01*
X0094080Y0026506D02*
X0092172Y0026506D01*
X0092548Y0028106D02*
X0093704Y0028106D01*
X0093704Y0029706D02*
X0092548Y0029706D01*
X0093704Y0031875D02*
X0094173Y0032343D01*
X0098772Y0032343D01*
X0099241Y0031875D01*
X0099241Y0030678D01*
X0107680Y0030678D01*
X0107680Y0034040D01*
X0107680Y0032906D02*
X0086216Y0032906D01*
X0086880Y0032241D02*
X0086880Y0035165D01*
X0088480Y0035165D02*
X0088480Y0032343D01*
X0090080Y0032343D02*
X0090080Y0035165D01*
X0094880Y0035165D02*
X0094880Y0032343D01*
X0096480Y0032343D02*
X0096480Y0035165D01*
X0098080Y0035165D02*
X0098080Y0032343D01*
X0099241Y0031306D02*
X0107680Y0031306D01*
X0106080Y0030678D02*
X0106080Y0035165D01*
X0104480Y0035165D02*
X0104480Y0030678D01*
X0102880Y0030678D02*
X0102880Y0035165D01*
X0101280Y0035165D02*
X0101280Y0030678D01*
X0099680Y0030678D02*
X0099680Y0035165D01*
X0098080Y0026413D02*
X0098080Y0020532D01*
X0096480Y0020532D02*
X0096480Y0026413D01*
X0093926Y0023306D02*
X0107340Y0023306D01*
X0110843Y0016780D02*
X0110843Y0015598D01*
X0110646Y0015402D01*
X0118717Y0016780D02*
X0118717Y0019142D01*
X0118913Y0019339D01*
X0122219Y0021706D02*
X0123088Y0021706D01*
X0123088Y0023306D02*
X0122219Y0023306D01*
X0122219Y0024906D02*
X0123088Y0024906D01*
X0123088Y0026506D02*
X0122219Y0026506D01*
X0122080Y0026989D02*
X0122080Y0029259D01*
X0121879Y0028106D02*
X0123428Y0028106D01*
X0122080Y0031859D02*
X0122080Y0035165D01*
X0121413Y0034506D02*
X0123894Y0034506D01*
X0123680Y0034292D02*
X0123680Y0035165D01*
X0125280Y0035165D02*
X0125280Y0034509D01*
X0126880Y0034509D02*
X0126880Y0035165D01*
X0128480Y0035165D02*
X0128480Y0034509D01*
X0129287Y0034506D02*
X0131768Y0034506D01*
X0131680Y0034418D02*
X0131680Y0035165D01*
X0130080Y0035165D02*
X0130080Y0032093D01*
X0129753Y0032906D02*
X0131302Y0032906D01*
X0133280Y0034509D02*
X0133280Y0035165D01*
X0134880Y0035165D02*
X0134880Y0034509D01*
X0136480Y0034509D02*
X0136480Y0035165D01*
X0137161Y0034506D02*
X0139642Y0034506D01*
X0139680Y0034509D02*
X0139680Y0035165D01*
X0138080Y0035165D02*
X0138080Y0031859D01*
X0137627Y0032906D02*
X0139176Y0032906D01*
X0141280Y0034509D02*
X0141280Y0035165D01*
X0142880Y0035165D02*
X0142880Y0034509D01*
X0144480Y0034509D02*
X0144480Y0035165D01*
X0145035Y0034506D02*
X0147516Y0034506D01*
X0147680Y0034509D02*
X0147680Y0035165D01*
X0146080Y0035165D02*
X0146080Y0032093D01*
X0145501Y0032906D02*
X0147050Y0032906D01*
X0149280Y0034509D02*
X0149280Y0035165D01*
X0150880Y0035050D02*
X0150880Y0034509D01*
X0139176Y0028106D02*
X0137627Y0028106D01*
X0138080Y0029259D02*
X0138080Y0010205D01*
X0137627Y0015306D02*
X0139176Y0015306D01*
X0139176Y0016906D02*
X0137627Y0016906D01*
X0137627Y0018506D02*
X0139176Y0018506D01*
X0139176Y0020106D02*
X0137627Y0020106D01*
X0137967Y0021706D02*
X0138836Y0021706D01*
X0138836Y0023306D02*
X0137967Y0023306D01*
X0137967Y0024906D02*
X0138836Y0024906D01*
X0138836Y0026506D02*
X0137967Y0026506D01*
X0134268Y0019339D02*
X0134465Y0019142D01*
X0134465Y0016780D01*
X0130080Y0015245D02*
X0130080Y0010205D01*
X0126787Y0015402D02*
X0126591Y0015598D01*
X0126591Y0016780D01*
X0142339Y0016780D02*
X0142339Y0015402D01*
X0146080Y0015245D02*
X0146080Y0010205D01*
X0152480Y0011559D02*
X0152480Y0012830D01*
X0152707Y0012106D02*
X0009923Y0012106D01*
X0010080Y0011726D02*
X0010080Y0012830D01*
X0011680Y0012830D02*
X0011680Y0010348D01*
X0013280Y0010205D02*
X0013280Y0012830D01*
X0014880Y0012830D02*
X0014880Y0010205D01*
X0016480Y0010205D02*
X0016480Y0015245D01*
X0017129Y0013706D02*
X0015580Y0013706D01*
X0018080Y0012830D02*
X0018080Y0010205D01*
X0019680Y0010205D02*
X0019680Y0012830D01*
X0021280Y0012830D02*
X0021280Y0010205D01*
X0022880Y0010205D02*
X0022880Y0012830D01*
X0023454Y0013706D02*
X0025003Y0013706D01*
X0026080Y0012830D02*
X0026080Y0010205D01*
X0024480Y0010205D02*
X0024480Y0029159D01*
X0025003Y0028106D02*
X0023454Y0028106D01*
X0023794Y0026506D02*
X0024663Y0026506D01*
X0024663Y0024906D02*
X0023794Y0024906D01*
X0023794Y0023306D02*
X0024663Y0023306D01*
X0024663Y0021706D02*
X0023794Y0021706D01*
X0023454Y0020106D02*
X0025003Y0020106D01*
X0025003Y0018506D02*
X0023454Y0018506D01*
X0023454Y0016906D02*
X0025003Y0016906D01*
X0025003Y0015306D02*
X0023454Y0015306D01*
X0020291Y0016780D02*
X0020291Y0019339D01*
X0028165Y0016780D02*
X0028165Y0015598D01*
X0028362Y0015402D01*
X0027680Y0012830D02*
X0027680Y0010205D01*
X0029280Y0010205D02*
X0029280Y0012830D01*
X0030880Y0012851D02*
X0030880Y0010205D01*
X0032480Y0010205D02*
X0032480Y0015245D01*
X0032877Y0013706D02*
X0031328Y0013706D01*
X0034080Y0012830D02*
X0034080Y0010205D01*
X0035680Y0010205D02*
X0035680Y0012830D01*
X0037280Y0012830D02*
X0037280Y0010205D01*
X0038880Y0010205D02*
X0038880Y0012977D01*
X0039202Y0013706D02*
X0040751Y0013706D01*
X0042080Y0012830D02*
X0042080Y0010205D01*
X0040480Y0010205D02*
X0040480Y0020419D01*
X0040751Y0020106D02*
X0039202Y0020106D01*
X0039202Y0018506D02*
X0040751Y0018506D01*
X0040751Y0016906D02*
X0039202Y0016906D01*
X0039202Y0015306D02*
X0040751Y0015306D01*
X0043913Y0015402D02*
X0043913Y0016780D01*
X0047076Y0013706D02*
X0048625Y0013706D01*
X0048480Y0015245D02*
X0048480Y0010205D01*
X0046880Y0010205D02*
X0046880Y0013103D01*
X0045280Y0012830D02*
X0045280Y0010205D01*
X0043680Y0010205D02*
X0043680Y0012830D01*
X0050080Y0012830D02*
X0050080Y0010205D01*
X0051680Y0010205D02*
X0051680Y0012830D01*
X0053280Y0012830D02*
X0053280Y0010205D01*
X0056480Y0018667D02*
X0056480Y0027978D01*
X0058080Y0027978D02*
X0058080Y0018667D01*
X0059680Y0018667D02*
X0059680Y0027978D01*
X0061280Y0027978D02*
X0061280Y0018667D01*
X0062880Y0018667D02*
X0062880Y0027978D01*
X0062880Y0030778D02*
X0062880Y0035165D01*
X0061280Y0035165D02*
X0061280Y0030778D01*
X0059680Y0030778D02*
X0059680Y0035165D01*
X0058080Y0035165D02*
X0058080Y0030778D01*
X0056480Y0030778D02*
X0056480Y0035165D01*
X0054950Y0031306D02*
X0063389Y0031306D01*
X0064480Y0032343D02*
X0064480Y0035165D01*
X0066080Y0035165D02*
X0066080Y0032343D01*
X0067680Y0032343D02*
X0067680Y0035165D01*
X0069280Y0035165D02*
X0069280Y0023410D01*
X0069176Y0023306D02*
X0055290Y0023306D01*
X0064480Y0014602D02*
X0064480Y0010205D01*
X0066080Y0010205D02*
X0066080Y0014602D01*
X0068926Y0016906D02*
X0069982Y0016906D01*
X0070880Y0017267D02*
X0070880Y0017867D01*
X0069982Y0018506D02*
X0068926Y0018506D01*
X0070055Y0020106D02*
X0070062Y0020106D01*
X0070880Y0020632D02*
X0070880Y0020704D01*
X0072550Y0018506D02*
X0073150Y0018506D01*
X0072480Y0017867D02*
X0072480Y0017267D01*
X0072550Y0016906D02*
X0073150Y0016906D01*
X0074080Y0017267D02*
X0074080Y0017867D01*
X0072588Y0023306D02*
X0090357Y0023306D01*
X0085280Y0029365D02*
X0085280Y0010205D01*
X0083680Y0010205D02*
X0083680Y0030395D01*
X0084370Y0029706D02*
X0079556Y0029706D01*
X0078880Y0030793D02*
X0078880Y0035165D01*
X0077280Y0035165D02*
X0077280Y0031162D01*
X0080480Y0035165D02*
X0080480Y0010205D01*
X0082080Y0010205D02*
X0082080Y0035165D01*
X0072480Y0026413D02*
X0072480Y0023413D01*
X0040411Y0023306D02*
X0039542Y0023306D01*
X0039542Y0024906D02*
X0040411Y0024906D01*
X0040411Y0026506D02*
X0039542Y0026506D01*
X0040480Y0026920D02*
X0040480Y0029159D01*
X0040751Y0028106D02*
X0039202Y0028106D01*
X0039542Y0021706D02*
X0040411Y0021706D01*
X0036039Y0019339D02*
X0035933Y0019339D01*
X0036039Y0016780D01*
X0012417Y0016780D02*
X0012417Y0015402D01*
X0109280Y0034509D02*
X0109280Y0035165D01*
X0110880Y0035165D02*
X0110880Y0034509D01*
X0112480Y0034509D02*
X0112480Y0035165D01*
X0113539Y0034506D02*
X0116020Y0034506D01*
X0115680Y0034166D02*
X0115680Y0035165D01*
X0114080Y0035165D02*
X0114080Y0032093D01*
X0114005Y0032906D02*
X0115554Y0032906D01*
X0117280Y0034509D02*
X0117280Y0035165D01*
X0118880Y0035165D02*
X0118880Y0034509D01*
X0120480Y0034509D02*
X0120480Y0035165D01*
X0121879Y0032906D02*
X0123428Y0032906D01*
X0150213Y0019339D02*
X0150213Y0016780D01*
D15*
X0142339Y0030559D02*
X0134465Y0030559D01*
X0126591Y0030559D02*
X0118717Y0030559D01*
X0110161Y0029378D02*
X0096472Y0029378D01*
X0089780Y0029378D02*
X0087220Y0029378D01*
X0085449Y0031150D01*
M02*
